0
SECTION
2
HEADER
9
$INSUNITS
70
1
0
ENDSEC
0
SECTION
2
TABLES
0
TABLE
2
LAYER
0
ENDTAB
0
ENDSEC
0
SECTION
2
ENTITIES
0
LINE
8
front_outsideCutPath
10
0
20
4.325
11
0
21
2.7425
0
LINE
8
front_outsideCutPath
10
0
20
2.7425
11
0.115
21
2.7425
0
LINE
8
front_outsideCutPath
10
0.115
20
2.7425
11
0.115
21
1.7075
0
LINE
8
front_outsideCutPath
10
0.115
20
1.7075
11
0
21
1.7075
0
LINE
8
front_outsideCutPath
10
0
20
1.7075
11
0
21
0.6725
0
LINE
8
front_outsideCutPath
10
0
20
0.6725
11
0
21
0.125
0
LINE
8
front_outsideCutPath
10
0
20
0.125
11
1.0825
21
0.125
0
LINE
8
front_outsideCutPath
10
1.0825
20
0.125
11
1.0825
21
0.24
0
LINE
8
front_outsideCutPath
10
1.0825
20
0.24
11
2.1175
21
0.24
0
LINE
8
front_outsideCutPath
10
2.1175
20
0.24
11
2.1175
21
0.125
0
LINE
8
front_outsideCutPath
10
2.1175
20
0.125
11
3.2
21
0.125
0
LINE
8
front_outsideCutPath
10
3.2
20
0.125
11
3.2
21
1.7075
0
LINE
8
front_outsideCutPath
10
3.2
20
1.7075
11
3.085
21
1.7075
0
LINE
8
front_outsideCutPath
10
3.085
20
1.7075
11
3.085
21
2.7425
0
LINE
8
front_outsideCutPath
10
3.085
20
2.7425
11
3.2
21
2.7425
0
LINE
8
front_outsideCutPath
10
3.2
20
2.7425
11
3.2
21
3.7775
0
LINE
8
front_outsideCutPath
10
3.2
20
3.7775
11
3.2
21
4.325
0
LINE
8
front_outsideCutPath
10
3.2
20
4.325
11
2.1175
21
4.325
0
LINE
8
front_outsideCutPath
10
2.1175
20
4.325
11
2.1175
21
4.21
0
LINE
8
front_outsideCutPath
10
2.1175
20
4.21
11
1.0825
21
4.21
0
LINE
8
front_outsideCutPath
10
1.0825
20
4.21
11
1.0825
21
4.325
0
LINE
8
front_outsideCutPath
10
1.0825
20
4.325
11
0
21
4.325
0
LINE
8
front_labelLayer
10
1.0698437
20
2.325788
11
1.0698437
21
2.2854755
0
LINE
8
front_labelLayer
10
1.0698437
20
2.2854755
11
0.9826562
21
2.2854755
0
LINE
8
front_labelLayer
10
0.9826562
20
2.2854755
11
0.9826562
21
1.983288
0
LINE
8
front_labelLayer
10
0.9826562
20
1.983288
11
0.9307812
21
1.983288
0
LINE
8
front_labelLayer
10
0.9307812
20
1.983288
11
0.9307812
21
2.2854755
0
LINE
8
front_labelLayer
10
0.9307812
20
2.2854755
11
0.8695312
21
2.2854755
0
LINE
8
front_labelLayer
10
0.8695312
20
2.2854755
11
0.8695312
21
2.308913
0
LINE
8
front_labelLayer
10
0.8695312
20
2.308913
11
0.9307812
21
2.327663
0
LINE
8
front_labelLayer
10
0.9307812
20
2.327663
11
0.9307812
21
2.3467255
0
LINE
8
front_labelLayer
10
1.1048437
20
2.462038
11
1.0914062
21
2.4204755
0
LINE
8
front_labelLayer
10
0.9826562
20
2.3479755
11
0.9826562
21
2.325788
0
LINE
8
front_labelLayer
10
0.9826562
20
2.325788
11
1.0698437
21
2.325788
0
ARC
8
front_labelLayer
10
1.1410104
20
2.3491432
40
0.2102431
50
167.5776676
51
180.6588746
0
ARC
8
front_labelLayer
10
1.0421486
20
2.3721916
40
0.1087447
50
141.7433575
51
168.2320909
0
ARC
8
front_labelLayer
10
1.026051
20
2.3805936
40
0.0909642
50
98.2550352
51
139.6203826
0
ARC
8
front_labelLayer
10
1.0401838
20
2.315314
40
0.1576642
50
89.6693139
51
99.9318429
0
ARC
8
front_labelLayer
10
1.0402257
20
2.3059371
40
0.1670407
50
81.5641693
51
89.7022555
0
ARC
8
front_labelLayer
10
1.0284866
20
2.224027
40
0.2497869
50
75.9736961
51
81.656895
0
ARC
8
front_labelLayer
10
1.0083592
20
2.1405283
40
0.335675
50
73.2955836
51
76.0948946
0
ARC
8
front_labelLayer
10
1.0133762
20
2.1808605
40
0.252
50
71.9622832
51
76.5910023
0
ARC
8
front_labelLayer
10
1.0329387
20
2.2638225
40
0.1667633
50
76.5189496
51
83.0209312
0
ARC
8
front_labelLayer
10
1.0397527
20
2.3185916
40
0.1115721
50
83.0767447
51
89.7927588
0
ARC
8
front_labelLayer
10
1.0395278
20
2.3602147
40
0.0699511
50
89.485279
51
103.4206909
0
ARC
8
front_labelLayer
10
1.033221
20
2.3844388
40
0.0449277
50
102.7674402
51
144.337857
0
ARC
8
front_labelLayer
10
1.045931
20
2.3762615
40
0.0600264
50
145.0692067
51
162.1794855
0
ARC
8
front_labelLayer
10
1.0894854
20
2.3616074
40
0.1059775
50
161.8433529
51
171.785162
0
ARC
8
front_labelLayer
10
1.1605474
20
2.350934
40
0.1778359
50
171.6530093
51
178.4387781
0
ARC
8
front_labelLayer
10
1.2275771
20
2.3480806
40
0.2449207
50
178.1987417
51
180.0245899
0
LINE
8
front_labelLayer
10
1.3295312
20
2.328288
11
1.3223437
21
2.280163
0
LINE
8
front_labelLayer
10
1.1842187
20
2.167038
11
1.1842187
21
1.983288
0
LINE
8
front_labelLayer
10
1.1842187
20
1.983288
11
1.1323437
21
1.983288
0
LINE
8
front_labelLayer
10
1.1323437
20
1.983288
11
1.1323437
21
2.325788
0
LINE
8
front_labelLayer
10
1.1323437
20
2.325788
11
1.1751562
21
2.325788
0
LINE
8
front_labelLayer
10
1.1751562
20
2.325788
11
1.1810937
21
2.2623505
0
LINE
8
front_labelLayer
10
1.1810937
20
2.2623505
11
1.1835937
21
2.2623505
0
ARC
8
front_labelLayer
10
1.2891241
20
2.0938824
40
0.2381562
50
84.9919172
51
90.1275929
0
ARC
8
front_labelLayer
10
1.294849
20
2.1579949
40
0.1737889
50
78.4884796
51
85.0269723
0
ARC
8
front_labelLayer
10
1.2726487
20
2.0569964
40
0.2286328
50
77.4461232
51
81.6366699
0
ARC
8
front_labelLayer
10
1.2826146
20
2.1257306
40
0.1591802
50
81.5872224
51
87.1928525
0
ARC
8
front_labelLayer
10
1.2847759
20
2.1632582
40
0.1215922
50
87.3439993
51
89.9680395
0
ARC
8
front_labelLayer
10
1.2842686
20
2.194969
40
0.0898834
50
89.6334033
51
137.0882901
0
ARC
8
front_labelLayer
10
1.3062679
20
2.1702187
40
0.1228878
50
135.6201386
51
138.8391153
0
ARC
8
front_labelLayer
10
1.3030953
20
2.1733177
40
0.1184599
50
138.9576016
51
174.5423972
0
ARC
8
front_labelLayer
10
1.3416569
20
2.1672806
40
0.1574385
50
173.6900125
51
180.0882907
0
ARC
8
front_labelLayer
10
1.3362318
20
2.1763526
40
0.1751971
50
139.4141502
51
150.6026378
0
ARC
8
front_labelLayer
10
1.3048074
20
2.2032808
40
0.1338134
50
124.2320834
51
139.4166386
0
ARC
8
front_labelLayer
10
1.2880153
20
2.228629
40
0.1034105
50
89.6795096
51
124.4406474
0
ARC
8
front_labelLayer
10
1.4212791
20
2.1530431
40
0.2679457
50
349.1760041
51
0.386491
0
ARC
8
front_labelLayer
10
1.5114803
20
2.1350603
40
0.1759737
50
330.2510403
51
349.4116336
0
ARC
8
front_labelLayer
10
1.539249
20
2.1206283
40
0.1447088
50
318.1437301
51
329.7565593
0
ARC
8
front_labelLayer
10
1.5442574
20
2.1166144
40
0.1383006
50
278.8960297
51
317.9977836
0
ARC
8
front_labelLayer
10
1.5313477
20
2.1784637
40
0.2014276
50
269.7499805
51
279.8034455
0
ARC
8
front_labelLayer
10
1.529252
20
2.143617
40
0.1665834
50
253.5437437
51
270.4184822
0
ARC
8
front_labelLayer
10
1.52371
20
2.1221737
40
0.1444504
50
238.8118017
51
253.2424754
0
ARC
8
front_labelLayer
10
1.5219175
20
2.1185686
40
0.1404386
50
207.7945514
51
238.6757733
0
ARC
8
front_labelLayer
10
1.547748
20
2.1343771
40
0.1706716
50
205.6584074
51
208.4457387
0
ARC
8
front_labelLayer
10
1.5673786
20
2.1425391
40
0.1919038
50
188.9102871
51
205.3171511
0
ARC
8
front_labelLayer
10
1.634025
20
2.1538278
40
0.2594958
50
179.7741951
51
189.0935101
0
ARC
8
front_labelLayer
10
1.6438592
20
2.1566758
40
0.2693341
50
169.2439805
51
180.3883037
0
ARC
8
front_labelLayer
10
1.5523971
20
2.1747572
40
0.1761059
50
150.7107272
51
169.4699074
0
ARC
8
front_labelLayer
10
1.5232
20
2.1897531
40
0.1433102
50
138.1757261
51
150.2289932
0
ARC
8
front_labelLayer
10
1.5183471
20
2.1934778
40
0.1372107
50
99.1758236
51
137.9833986
0
ARC
8
front_labelLayer
10
1.531717
20
2.1305605
40
0.2014799
50
89.7329159
51
100.0761309
0
ARC
8
front_labelLayer
10
1.5343881
20
2.1577339
40
0.1743127
50
73.522267
51
90.5692649
0
ARC
8
front_labelLayer
10
1.5446099
20
2.1948738
40
0.1358007
50
41.1445695
51
73.2132366
0
ARC
8
front_labelLayer
10
1.5250967
20
2.1781025
40
0.1615303
50
13.501437
51
41.0703633
0
ARC
8
front_labelLayer
10
1.4497025
20
2.1583736
40
0.2394522
50
1.12769
51
13.87983
0
ARC
8
front_labelLayer
10
1.3840989
20
2.1548863
40
0.3051197
50
359.9932855
51
1.5399711
0
ARC
8
front_labelLayer
10
1.6909925
20
2.1535038
40
0.2627147
50
179.7062924
51
187.9157592
0
ARC
8
front_labelLayer
10
1.59462
20
2.1396613
40
0.1653547
50
187.7638385
51
200.097887
0
ARC
8
front_labelLayer
10
1.5415484
20
2.1202161
40
0.108833
50
200.0850237
51
216.9131433
0
ARC
8
front_labelLayer
10
1.5221641
20
2.1063751
40
0.0850235
50
217.3011453
51
261.7098348
0
ARC
8
front_labelLayer
10
1.5311629
20
2.1493182
40
0.128844
50
260.5033253
51
270.247165
0
ARC
8
front_labelLayer
10
1.5328792
20
2.1409631
40
0.1204932
50
269.4481658
51
284.725463
0
ARC
8
front_labelLayer
10
1.5424177
20
2.1055864
40
0.0838542
50
284.5663136
51
322.6334234
0
ARC
8
front_labelLayer
10
1.5201144
20
2.1216996
40
0.1113619
50
323.009
51
342.6387876
0
ARC
8
front_labelLayer
10
1.4563236
20
2.1425473
40
0.1784694
50
342.3616915
51
353.7536032
0
ARC
8
front_labelLayer
10
1.36221
20
2.1538899
40
0.2732604
50
353.5365233
51
0.2014144
0
ARC
8
front_labelLayer
10
1.3766565
20
2.1561729
40
0.2588156
50
359.7072546
51
7.8975531
0
ARC
8
front_labelLayer
10
1.471429
20
2.1697601
40
0.1630756
50
7.7442284
51
20.0691594
0
ARC
8
front_labelLayer
10
1.524248
20
2.1891426
40
0.1068128
50
20.0259651
51
37.434564
0
ARC
8
front_labelLayer
10
1.5417785
20
2.2015816
40
0.0853352
50
37.9575049
51
80.4007877
0
ARC
8
front_labelLayer
10
1.5318187
20
2.1571395
40
0.130838
50
79.3456047
51
90.3174641
0
ARC
8
front_labelLayer
10
1.5299746
20
2.1645207
40
0.1234599
50
89.4806185
51
103.8801264
0
ARC
8
front_labelLayer
10
1.5196017
20
2.2040253
40
0.0826225
50
103.468776
51
142.3115138
0
ARC
8
front_labelLayer
10
1.5397708
20
2.1898421
40
0.1072601
50
142.902814
51
162.3746223
0
ARC
8
front_labelLayer
10
1.6033131
20
2.1686672
40
0.1742336
50
162.0652497
51
173.1674878
0
ARC
8
front_labelLayer
10
1.7024118
20
2.1560278
40
0.2741332
50
173.0086183
51
180.2460592
0
LINE
8
front_labelLayer
10
2.0664062
20
1.983288
11
2.0145312
21
1.983288
0
LINE
8
front_labelLayer
10
2.0145312
20
1.983288
11
2.0145312
21
2.2048505
0
LINE
8
front_labelLayer
10
1.8320312
20
2.1629755
11
1.8320312
21
1.983288
0
LINE
8
front_labelLayer
10
1.8320312
20
1.983288
11
1.7801562
21
1.983288
0
LINE
8
front_labelLayer
10
1.7801562
20
1.983288
11
1.7801562
21
2.325788
0
LINE
8
front_labelLayer
10
1.7801562
20
2.325788
11
1.8223437
21
2.325788
0
LINE
8
front_labelLayer
10
1.8223437
20
2.325788
11
1.8307812
21
2.278913
0
LINE
8
front_labelLayer
10
1.8307812
20
2.278913
11
1.8332812
21
2.278913
0
LINE
8
front_labelLayer
10
2.0664062
20
2.2067255
11
2.0664062
21
1.983288
0
ARC
8
front_labelLayer
10
1.8678899
20
2.2056915
40
0.1466437
50
359.6714319
51
8.6873682
0
ARC
8
front_labelLayer
10
1.9222476
20
2.214311
40
0.0916082
50
8.4932714
51
22.6586551
0
ARC
8
front_labelLayer
10
1.9498572
20
2.2257863
40
0.061709
50
22.702041
51
42.3418326
0
ARC
8
front_labelLayer
10
1.9529611
20
2.2271822
40
0.0584841
50
43.3792483
51
71.5390817
0
ARC
8
front_labelLayer
10
1.9413535
20
2.1947506
40
0.0929255
50
71.0824822
51
84.3688685
0
ARC
8
front_labelLayer
10
1.9361438
20
2.1504639
40
0.1375121
50
84.019296
51
90.1510848
0
ARC
8
front_labelLayer
10
1.9346678
20
2.1309661
40
0.1570134
50
89.5936828
51
100.3713603
0
ARC
8
front_labelLayer
10
1.9235736
20
2.1891851
40
0.0977493
50
100.1182005
51
118.1597489
0
ARC
8
front_labelLayer
10
1.912388
20
2.2111186
40
0.0731347
50
118.5432671
51
139.1930516
0
ARC
8
front_labelLayer
10
1.9221387
20
2.2045746
40
0.0848036
50
140.1517703
51
160.3147955
0
ARC
8
front_labelLayer
10
1.9810293
20
2.1825184
40
0.1476851
50
159.9540752
51
171.3794365
0
ARC
8
front_labelLayer
10
2.0771629
20
2.1670662
40
0.2450503
50
171.1764618
51
178.3222307
0
ARC
8
front_labelLayer
10
2.1642478
20
2.1631128
40
0.3322166
50
178.0804328
51
180.0236741
0
ARC
8
front_labelLayer
10
1.9220216
20
2.2227109
40
0.1050406
50
116.9444091
51
147.6526115
0
ARC
8
front_labelLayer
10
1.9327781
20
2.2047698
40
0.1259166
50
115.8032868
51
117.6084195
0
ARC
8
front_labelLayer
10
1.9385447
20
2.1913884
40
0.1404754
50
94.3228111
51
115.5451078
0
ARC
8
front_labelLayer
10
1.941904
20
2.162247
40
0.1697911
50
89.9570638
51
94.7119428
0
ARC
8
front_labelLayer
10
1.9432961
20
2.1272221
40
0.2048198
50
80.5589381
51
90.3538276
0
ARC
8
front_labelLayer
10
1.9560954
20
2.2013683
40
0.1295791
50
65.1096849
51
80.7639177
0
ARC
8
front_labelLayer
10
1.9710573
20
2.2345095
40
0.0932197
50
46.5586475
51
64.8783476
0
ARC
8
front_labelLayer
10
1.9722532
20
2.237961
40
0.0899039
50
19.3851919
51
45.599437
0
ARC
8
front_labelLayer
10
1.9202468
20
2.2184479
40
0.1454432
50
6.9630361
51
19.8362949
0
ARC
8
front_labelLayer
10
1.8400175
20
2.2076614
40
0.2263905
50
359.7631465
51
7.2112728
0
LINE
8
front_labelLayer
10
2.3304687
20
2.0261005
11
2.3304687
21
1.986413
0
LINE
8
front_labelLayer
10
2.1767187
20
2.0817255
11
2.1767187
21
2.2854755
0
LINE
8
front_labelLayer
10
2.1767187
20
2.2854755
11
2.1276562
21
2.2854755
0
LINE
8
front_labelLayer
10
2.1276562
20
2.2854755
11
2.1276562
21
2.3104755
0
LINE
8
front_labelLayer
10
2.1276562
20
2.3104755
11
2.1767187
21
2.332038
0
LINE
8
front_labelLayer
10
2.1767187
20
2.332038
11
2.1985937
21
2.405163
0
LINE
8
front_labelLayer
10
2.1985937
20
2.405163
11
2.2285937
21
2.405163
0
LINE
8
front_labelLayer
10
2.2285937
20
2.405163
11
2.2285937
21
2.325788
0
LINE
8
front_labelLayer
10
2.2285937
20
2.325788
11
2.3279687
21
2.325788
0
LINE
8
front_labelLayer
10
2.3279687
20
2.325788
11
2.3279687
21
2.2854755
0
LINE
8
front_labelLayer
10
2.3279687
20
2.2854755
11
2.2285937
21
2.2854755
0
LINE
8
front_labelLayer
10
2.2285937
20
2.2854755
11
2.2285937
21
2.083913
0
ARC
8
front_labelLayer
10
2.2839482
20
2.1902211
40
0.1703709
50
269.8808014
51
278.3029624
0
ARC
8
front_labelLayer
10
2.2858916
20
2.1748526
40
0.1548833
50
278.4125387
51
279.0132913
0
ARC
8
front_labelLayer
10
2.266429
20
2.299233
40
0.2807771
50
278.9595024
51
280.5100947
0
ARC
8
front_labelLayer
10
2.2847139
20
2.2011178
40
0.1809727
50
280.4844512
51
282.6290925
0
ARC
8
front_labelLayer
10
2.3006504
20
2.1303519
40
0.1084347
50
282.5874597
51
285.579261
0
ARC
8
front_labelLayer
10
2.3093181
20
2.098612
40
0.0755332
50
285.7121563
51
286.2612698
0
ARC
8
front_labelLayer
10
2.3086569
20
2.0325456
40
0.0510291
50
287.9898324
51
295.3051763
0
ARC
8
front_labelLayer
10
2.2963557
20
2.0697569
40
0.0902206
50
283.3075224
51
288.1213479
0
ARC
8
front_labelLayer
10
2.2833646
20
2.1239412
40
0.1459401
50
280.0063517
51
283.3743744
0
ARC
8
front_labelLayer
10
2.274795
20
2.1704309
40
0.193212
50
279.1816723
51
280.1135064
0
ARC
8
front_labelLayer
10
2.2693086
20
2.201617
40
0.2248746
50
275.5264169
51
279.2937426
0
ARC
8
front_labelLayer
10
2.2753329
20
2.138725
40
0.1616948
50
270.8924253
51
275.5478453
0
ARC
8
front_labelLayer
10
2.276071
20
2.1113211
40
0.1342832
50
270.0096811
51
270.7596481
0
ARC
8
front_labelLayer
10
2.2740005
20
2.1125143
40
0.1354924
50
253.7850717
51
270.8852154
0
ARC
8
front_labelLayer
10
2.2579485
20
2.0577684
40
0.0784419
50
190.3816943
51
253.8772061
0
ARC
8
front_labelLayer
10
2.3397613
20
2.0798902
40
0.163053
50
179.3550803
51
192.848052
0
ARC
8
front_labelLayer
10
2.3330606
20
2.0832608
40
0.1044689
50
179.6422815
51
189.7502566
0
ARC
8
front_labelLayer
10
2.2961768
20
2.076683
40
0.0670044
50
189.5481337
51
205.787
0
ARC
8
front_labelLayer
10
2.2810176
20
2.0696923
40
0.0503145
50
206.1287445
51
221.4086768
0
ARC
8
front_labelLayer
10
2.2793213
20
2.0684056
40
0.0481914
50
221.5952535
51
262.3501682
0
ARC
8
front_labelLayer
10
2.2833635
20
2.0891995
40
0.0693494
50
261.3271689
51
270.1902051
0
LINE
8
left_outsideCutPath
10
3.44
20
4.325
11
3.44
21
2.7425
0
LINE
8
left_outsideCutPath
10
3.44
20
2.7425
11
3.325
21
2.7425
0
LINE
8
left_outsideCutPath
10
3.325
20
2.7425
11
3.325
21
1.7075
0
LINE
8
left_outsideCutPath
10
3.325
20
1.7075
11
3.44
21
1.7075
0
LINE
8
left_outsideCutPath
10
3.44
20
1.7075
11
3.44
21
0.6725
0
LINE
8
left_outsideCutPath
10
3.44
20
0.6725
11
3.44
21
0.125
0
LINE
8
left_outsideCutPath
10
3.44
20
0.125
11
3.9075
21
0.125
0
LINE
8
left_outsideCutPath
10
3.9075
20
0.125
11
3.9075
21
0.24
0
LINE
8
left_outsideCutPath
10
3.9075
20
0.24
11
4.9425
21
0.24
0
LINE
8
left_outsideCutPath
10
4.9425
20
0.24
11
4.9425
21
0.125
0
LINE
8
left_outsideCutPath
10
4.9425
20
0.125
11
5.41
21
0.125
0
LINE
8
left_outsideCutPath
10
5.41
20
0.125
11
5.41
21
1.7075
0
LINE
8
left_outsideCutPath
10
5.41
20
1.7075
11
5.525
21
1.7075
0
LINE
8
left_outsideCutPath
10
5.525
20
1.7075
11
5.525
21
2.7425
0
LINE
8
left_outsideCutPath
10
5.525
20
2.7425
11
5.41
21
2.7425
0
LINE
8
left_outsideCutPath
10
5.41
20
2.7425
11
5.41
21
3.7775
0
LINE
8
left_outsideCutPath
10
5.41
20
3.7775
11
5.41
21
4.325
0
LINE
8
left_outsideCutPath
10
5.41
20
4.325
11
4.9425
21
4.325
0
LINE
8
left_outsideCutPath
10
4.9425
20
4.325
11
4.9425
21
4.21
0
LINE
8
left_outsideCutPath
10
4.9425
20
4.21
11
3.9075
21
4.21
0
LINE
8
left_outsideCutPath
10
3.9075
20
4.21
11
3.9075
21
4.325
0
LINE
8
left_outsideCutPath
10
3.9075
20
4.325
11
3.44
21
4.325
0
LINE
8
left_labelLayer
10
4.1529004
20
2.3931199
11
4.1529004
21
2.058823
0
LINE
8
left_labelLayer
10
4.1529004
20
2.058823
11
4.1172363
21
2.058823
0
LINE
8
left_labelLayer
10
4.1172363
20
2.058823
11
4.1172363
21
2.3931199
0
LINE
8
left_labelLayer
10
4.1172363
20
2.3931199
11
4.1529004
21
2.3931199
0
LINE
8
left_labelLayer
10
4.4145801
20
2.1926707
11
4.4145801
21
2.1701121
0
LINE
8
left_labelLayer
10
4.4145801
20
2.1701121
11
4.252373
21
2.1701121
0
LINE
8
left_labelLayer
10
4.4044824
20
2.1015769
11
4.4044824
21
2.0697801
0
LINE
8
left_labelLayer
10
4.2532324
20
2.199116
11
4.3763379
21
2.199116
0
ARC
8
left_labelLayer
10
4.3268247
20
2.193103
40
0.1385818
50
256.0083658
51
270.4851324
0
ARC
8
left_labelLayer
10
4.3167332
20
2.1539301
40
0.0981318
50
223.5463508
51
256.1957078
0
ARC
8
left_labelLayer
10
4.3223008
20
2.1579771
40
0.1049595
50
194.0876302
51
223.0536963
0
ARC
8
left_labelLayer
10
4.3733071
20
2.1719262
40
0.157831
50
181.3572126
51
194.4921821
0
ARC
8
left_labelLayer
10
4.4191745
20
2.17459
40
0.2037547
50
179.990494
51
181.8005624
0
ARC
8
left_labelLayer
10
4.402691
20
2.1758791
40
0.1872753
50
168.9538902
51
180.3840521
0
ARC
8
left_labelLayer
10
4.3415264
20
2.188333
40
0.1248589
50
149.4071747
51
169.185205
0
ARC
8
left_labelLayer
10
4.3244678
20
2.1973496
40
0.1055898
50
140.1050405
51
148.9078793
0
ARC
8
left_labelLayer
10
4.3140149
20
2.2069896
40
0.0913898
50
92.4761804
51
140.5387069
0
ARC
8
left_labelLayer
10
4.3186772
20
2.1726115
40
0.1259772
50
89.9624634
51
93.9193256
0
ARC
8
left_labelLayer
10
4.319794
20
2.1899442
40
0.1086493
50
74.2121662
51
90.5453991
0
ARC
8
left_labelLayer
10
4.3265992
20
2.2150132
40
0.082675
50
41.2064892
51
74.0235461
0
ARC
8
left_labelLayer
10
4.3137089
20
2.2038582
40
0.0997215
50
11.5997221
51
41.1493303
0
ARC
8
left_labelLayer
10
4.2694245
20
2.1936466
40
0.1451588
50
359.6148027
51
12.0333985
0
ARC
8
left_labelLayer
10
4.3954754
20
2.1729704
40
0.1431309
50
181.1442696
51
190.8010512
0
ARC
8
left_labelLayer
10
4.3449862
20
2.1630116
40
0.0916705
50
190.6005983
51
206.0278129
0
ARC
8
left_labelLayer
10
4.3226438
20
2.1524482
40
0.0669594
50
206.2947572
51
222.5559838
0
ARC
8
left_labelLayer
10
4.3206653
20
2.1514127
40
0.0648043
50
223.0645657
51
258.1402963
0
ARC
8
left_labelLayer
10
4.3285461
20
2.1838626
40
0.0981868
50
257.5313405
51
270.4324282
0
ARC
8
left_labelLayer
10
4.3286343
20
2.2740399
40
0.1883625
50
270.1985732
51
292.2090964
0
ARC
8
left_labelLayer
10
4.3201015
20
2.298782
40
0.2144994
50
291.8211249
51
293.1653227
0
ARC
8
left_labelLayer
10
4.319155
20
2.2661531
40
0.2141101
50
287.9020644
51
293.4857578
0
ARC
8
left_labelLayer
10
4.3346776
20
2.218268
40
0.1637721
50
281.993978
51
287.8840093
0
ARC
8
left_labelLayer
10
4.3384442
20
2.2047463
40
0.1497654
50
275.9063758
51
281.6594471
0
ARC
8
left_labelLayer
10
4.3309115
20
2.2750991
40
0.2205201
50
271.9126572
51
275.9721671
0
ARC
8
left_labelLayer
10
4.3281603
20
2.3453163
40
0.2907903
50
269.9680357
51
271.9926736
0
ARC
8
left_labelLayer
10
4.3176457
20
2.1984272
40
0.0703015
50
89.4422185
51
106.209112
0
ARC
8
left_labelLayer
10
4.3134153
20
2.2138494
40
0.0543121
50
106.4652257
51
137.9182335
0
ARC
8
left_labelLayer
10
4.3255413
20
2.2031996
40
0.0704495
50
138.099263
51
160.5867756
0
ARC
8
left_labelLayer
10
4.3567042
20
2.1917335
40
0.1036528
50
160.3345012
51
172.5316064
0
ARC
8
left_labelLayer
10
4.3874502
20
2.1868096
40
0.1347807
50
172.1550588
51
174.7612042
0
ARC
8
left_labelLayer
10
4.254789
20
2.1998052
40
0.1215508
50
359.6751278
51
8.9215134
0
ARC
8
left_labelLayer
10
4.2982419
20
2.2068838
40
0.0775262
50
8.7336441
51
23.2779518
0
ARC
8
left_labelLayer
10
4.3188477
20
2.215534
40
0.0551797
50
23.4826389
51
39.7066253
0
ARC
8
left_labelLayer
10
4.3239153
20
2.219326
40
0.0488595
50
40.0821413
51
80.6247914
0
ARC
8
left_labelLayer
10
4.3187034
20
2.1954318
40
0.0732943
50
79.6475815
51
90.2918038
0
LINE
8
left_labelLayer
10
4.5815137
20
2.2942918
11
4.5815137
21
2.2665769
0
LINE
8
left_labelLayer
10
4.5815137
20
2.2665769
11
4.5215723
21
2.2665769
0
LINE
8
left_labelLayer
10
4.5215723
20
2.2665769
11
4.5215723
21
2.058823
0
LINE
8
left_labelLayer
10
4.5215723
20
2.058823
11
4.4859082
21
2.058823
0
LINE
8
left_labelLayer
10
4.4859082
20
2.058823
11
4.4859082
21
2.2665769
0
LINE
8
left_labelLayer
10
4.4859082
20
2.2665769
11
4.4437988
21
2.2665769
0
LINE
8
left_labelLayer
10
4.4437988
20
2.2665769
11
4.4437988
21
2.2826902
0
LINE
8
left_labelLayer
10
4.4437988
20
2.2826902
11
4.4859082
21
2.2955808
0
LINE
8
left_labelLayer
10
4.4859082
20
2.2955808
11
4.4859082
21
2.3086863
0
LINE
8
left_labelLayer
10
4.6055762
20
2.3879636
11
4.5963379
21
2.3593894
0
LINE
8
left_labelLayer
10
4.5215723
20
2.3095457
11
4.5215723
21
2.2942918
0
LINE
8
left_labelLayer
10
4.5215723
20
2.2942918
11
4.5815137
21
2.2942918
0
ARC
8
left_labelLayer
10
4.6304448
20
2.3103479
40
0.1445462
50
167.5778225
51
180.6586631
0
ARC
8
left_labelLayer
10
4.5624719
20
2.3261952
40
0.0747604
50
141.743265
51
168.2325892
0
ARC
8
left_labelLayer
10
4.5514066
20
2.33197
40
0.0625386
50
98.2553231
51
139.6201963
0
ARC
8
left_labelLayer
10
4.561122
20
2.2870948
40
0.1083902
50
89.6690633
51
99.9319666
0
ARC
8
left_labelLayer
10
4.5611518
20
2.2806567
40
0.114828
50
81.5635109
51
89.7024793
0
ARC
8
left_labelLayer
10
4.5530633
20
2.2242469
40
0.1718143
50
75.9748793
51
81.655237
0
ARC
8
left_labelLayer
10
4.539224
20
2.16684
40
0.2308643
50
73.297174
51
76.0954225
0
ARC
8
left_labelLayer
10
4.5426968
20
2.1946665
40
0.1732368
50
71.9624594
51
76.5915307
0
ARC
8
left_labelLayer
10
4.5561412
20
2.2516852
40
0.114655
50
76.5194253
51
83.0211075
0
ARC
8
left_labelLayer
10
4.5608242
20
2.2893403
40
0.07671
50
83.0757044
51
89.7913609
0
ARC
8
left_labelLayer
10
4.560672
20
2.3179508
40
0.0481007
50
89.485973
51
103.4186941
0
ARC
8
left_labelLayer
10
4.556336
20
2.3346138
40
0.0308882
50
102.7681309
51
144.3378394
0
ARC
8
left_labelLayer
10
4.5650728
20
2.3289927
40
0.0412671
50
145.0690454
51
162.1797445
0
ARC
8
left_labelLayer
10
4.5950063
20
2.3189203
40
0.0728482
50
161.8426544
51
171.7860185
0
ARC
8
left_labelLayer
10
4.6438612
20
2.31158
40
0.1222509
50
171.6524016
51
178.4387971
0
ARC
8
left_labelLayer
10
4.6902052
20
2.3096137
40
0.1686328
50
178.1999689
51
180.0231124
0
LINE
8
left_labelLayer
10
4.7327637
20
2.0882566
11
4.7327637
21
2.0609715
0
LINE
8
left_labelLayer
10
4.6270605
20
2.1264988
11
4.6270605
21
2.2665769
0
LINE
8
left_labelLayer
10
4.6270605
20
2.2665769
11
4.5933301
21
2.2665769
0
LINE
8
left_labelLayer
10
4.5933301
20
2.2665769
11
4.5933301
21
2.2837644
0
LINE
8
left_labelLayer
10
4.5933301
20
2.2837644
11
4.6270605
21
2.2985886
0
LINE
8
left_labelLayer
10
4.6270605
20
2.2985886
11
4.6420996
21
2.3488621
0
LINE
8
left_labelLayer
10
4.6420996
20
2.3488621
11
4.6627246
21
2.3488621
0
LINE
8
left_labelLayer
10
4.6627246
20
2.3488621
11
4.6627246
21
2.2942918
0
LINE
8
left_labelLayer
10
4.6627246
20
2.2942918
11
4.7310449
21
2.2942918
0
LINE
8
left_labelLayer
10
4.7310449
20
2.2942918
11
4.7310449
21
2.2665769
0
LINE
8
left_labelLayer
10
4.7310449
20
2.2665769
11
4.6627246
21
2.2665769
0
LINE
8
left_labelLayer
10
4.6627246
20
2.2665769
11
4.6627246
21
2.1280027
0
ARC
8
left_labelLayer
10
4.700783
20
2.2010645
40
0.117105
50
269.8797039
51
278.3036675
0
ARC
8
left_labelLayer
10
4.7022354
20
2.1897067
40
0.1056567
50
278.4137775
51
279.0192237
0
ARC
8
left_labelLayer
10
4.6887234
20
2.2761363
40
0.1931361
50
278.9586264
51
280.5084012
0
ARC
8
left_labelLayer
10
4.7012853
20
2.2087066
40
0.1245463
50
280.4838605
51
282.6263065
0
ARC
8
left_labelLayer
10
4.7122935
20
2.1598025
40
0.0744184
50
282.5862507
51
285.5832957
0
ARC
8
left_labelLayer
10
4.7187571
20
2.1362835
40
0.0500278
50
285.6888523
51
286.2588354
0
ARC
8
left_labelLayer
10
4.7177723
20
2.092677
40
0.0350711
50
287.9885573
51
295.3062791
0
ARC
8
left_labelLayer
10
4.7093176
20
2.1182476
40
0.062003
50
283.3064202
51
288.122086
0
ARC
8
left_labelLayer
10
4.700353
20
2.1556417
40
0.1004564
50
280.0094417
51
283.373357
0
ARC
8
left_labelLayer
10
4.6945911
20
2.1868103
40
0.1321522
50
279.1841179
51
280.120755
0
ARC
8
left_labelLayer
10
4.6907397
20
2.2087406
40
0.1544163
50
275.5242466
51
279.2960868
0
ARC
8
left_labelLayer
10
4.6948586
20
2.165637
40
0.1111163
50
270.8924045
51
275.549874
0
ARC
8
left_labelLayer
10
4.6953758
20
2.1465405
40
0.0920143
50
270.0031417
51
270.7555979
0
ARC
8
left_labelLayer
10
4.6939417
20
2.1476642
40
0.0931492
50
253.7847536
51
270.8852352
0
ARC
8
left_labelLayer
10
4.6829061
20
2.1100284
40
0.0539289
50
190.3817592
51
253.877166
0
ARC
8
left_labelLayer
10
4.7391503
20
2.1252364
40
0.1120968
50
179.3547232
51
192.8479419
0
ARC
8
left_labelLayer
10
4.73454
20
2.1275535
40
0.0718168
50
179.6416547
51
189.7504209
0
ARC
8
left_labelLayer
10
4.7091879
20
2.1230321
40
0.0460654
50
189.5482238
51
205.7871355
0
ARC
8
left_labelLayer
10
4.6987677
20
2.1182272
40
0.0345932
50
206.1293704
51
221.4083952
0
ARC
8
left_labelLayer
10
4.6975993
20
2.1173406
40
0.0331307
50
221.5948493
51
262.3508905
0
ARC
8
left_labelLayer
10
4.7003779
20
2.1316328
40
0.0476732
50
261.3275059
51
270.1913714
0
LINE
8
top_outsideCutPath
10
5.765
20
2.21
11
5.765
21
1.7425
0
LINE
8
top_outsideCutPath
10
5.765
20
1.7425
11
5.65
21
1.7425
0
LINE
8
top_outsideCutPath
10
5.65
20
1.7425
11
5.65
21
0.7075
0
LINE
8
top_outsideCutPath
10
5.65
20
0.7075
11
5.765
21
0.7075
0
LINE
8
top_outsideCutPath
10
5.765
20
0.7075
11
5.765
21
0.24
0
LINE
8
top_outsideCutPath
10
5.765
20
0.24
11
6.7325
21
0.24
0
LINE
8
top_outsideCutPath
10
6.7325
20
0.24
11
6.7325
21
0.125
0
LINE
8
top_outsideCutPath
10
6.7325
20
0.125
11
7.7675
21
0.125
0
LINE
8
top_outsideCutPath
10
7.7675
20
0.125
11
7.7675
21
0.24
0
LINE
8
top_outsideCutPath
10
7.7675
20
0.24
11
8.735
21
0.24
0
LINE
8
top_outsideCutPath
10
8.735
20
0.24
11
8.735
21
0.7075
0
LINE
8
top_outsideCutPath
10
8.735
20
0.7075
11
8.85
21
0.7075
0
LINE
8
top_outsideCutPath
10
8.85
20
0.7075
11
8.85
21
1.7425
0
LINE
8
top_outsideCutPath
10
8.85
20
1.7425
11
8.735
21
1.7425
0
LINE
8
top_outsideCutPath
10
8.735
20
1.7425
11
8.735
21
2.21
0
LINE
8
top_outsideCutPath
10
8.735
20
2.21
11
7.7675
21
2.21
0
LINE
8
top_outsideCutPath
10
7.7675
20
2.21
11
7.7675
21
2.325
0
LINE
8
top_outsideCutPath
10
7.7675
20
2.325
11
6.7325
21
2.325
0
LINE
8
top_outsideCutPath
10
6.7325
20
2.325
11
6.7325
21
2.21
0
LINE
8
top_outsideCutPath
10
6.7325
20
2.21
11
5.765
21
2.21
0
LINE
8
top_labelLayer
10
7.0596466
20
1.1622656
11
7.0596466
21
1.1349805
0
LINE
8
top_labelLayer
10
6.9539435
20
1.2005078
11
6.9539435
21
1.3405859
0
LINE
8
top_labelLayer
10
6.9539435
20
1.3405859
11
6.920213
21
1.3405859
0
LINE
8
top_labelLayer
10
6.920213
20
1.3405859
11
6.920213
21
1.3577734
0
LINE
8
top_labelLayer
10
6.920213
20
1.3577734
11
6.9539435
21
1.3725977
0
LINE
8
top_labelLayer
10
6.9539435
20
1.3725977
11
6.9689826
21
1.4228711
0
LINE
8
top_labelLayer
10
6.9689826
20
1.4228711
11
6.9896076
21
1.4228711
0
LINE
8
top_labelLayer
10
6.9896076
20
1.4228711
11
6.9896076
21
1.3683008
0
LINE
8
top_labelLayer
10
6.9896076
20
1.3683008
11
7.0579279
21
1.3683008
0
LINE
8
top_labelLayer
10
7.0579279
20
1.3683008
11
7.0579279
21
1.3405859
0
LINE
8
top_labelLayer
10
7.0579279
20
1.3405859
11
6.9896076
21
1.3405859
0
LINE
8
top_labelLayer
10
6.9896076
20
1.3405859
11
6.9896076
21
1.2020117
0
ARC
8
top_labelLayer
10
7.0276659
20
1.2750735
40
0.117105
50
269.8797039
51
278.3036675
0
ARC
8
top_labelLayer
10
7.0291184
20
1.2637157
40
0.1056567
50
278.4137775
51
279.0192237
0
ARC
8
top_labelLayer
10
7.0156064
20
1.3501453
40
0.1931361
50
278.9586264
51
280.5084012
0
ARC
8
top_labelLayer
10
7.0281682
20
1.2827156
40
0.1245463
50
280.4838605
51
282.6263065
0
ARC
8
top_labelLayer
10
7.0391765
20
1.2338115
40
0.0744184
50
282.5862507
51
285.5832957
0
ARC
8
top_labelLayer
10
7.04564
20
1.2102925
40
0.0500278
50
285.6888523
51
286.2588354
0
ARC
8
top_labelLayer
10
7.0446552
20
1.166686
40
0.0350711
50
287.9885573
51
295.3062791
0
ARC
8
top_labelLayer
10
7.0362005
20
1.1922566
40
0.062003
50
283.3064202
51
288.122086
0
ARC
8
top_labelLayer
10
7.0272359
20
1.2296507
40
0.1004564
50
280.0094417
51
283.373357
0
ARC
8
top_labelLayer
10
7.0214741
20
1.2608193
40
0.1321522
50
279.1841179
51
280.120755
0
ARC
8
top_labelLayer
10
7.0176227
20
1.2827496
40
0.1544163
50
275.5242466
51
279.2960868
0
ARC
8
top_labelLayer
10
7.0217416
20
1.239646
40
0.1111163
50
270.8924045
51
275.549874
0
ARC
8
top_labelLayer
10
7.0222588
20
1.2205495
40
0.0920143
50
270.0031417
51
270.7555979
0
ARC
8
top_labelLayer
10
7.0208247
20
1.2216732
40
0.0931492
50
253.7847536
51
270.8852352
0
ARC
8
top_labelLayer
10
7.009789
20
1.1840374
40
0.0539289
50
190.3817592
51
253.877166
0
ARC
8
top_labelLayer
10
7.0660332
20
1.1992454
40
0.1120968
50
179.3547232
51
192.8479419
0
ARC
8
top_labelLayer
10
7.0614229
20
1.2015626
40
0.0718168
50
179.6416547
51
189.7504209
0
ARC
8
top_labelLayer
10
7.0360708
20
1.1970411
40
0.0460654
50
189.5482238
51
205.7871355
0
ARC
8
top_labelLayer
10
7.0256506
20
1.1922362
40
0.0345932
50
206.1293704
51
221.4083952
0
ARC
8
top_labelLayer
10
7.0244823
20
1.1913496
40
0.0331307
50
221.5948493
51
262.3508905
0
ARC
8
top_labelLayer
10
7.0272608
20
1.2056418
40
0.0476732
50
261.3275059
51
270.1913714
0
ARC
8
top_labelLayer
10
7.1257241
20
1.2495403
40
0.1842196
50
349.1758991
51
0.3859561
0
ARC
8
top_labelLayer
10
7.1877451
20
1.2371757
40
0.1209813
50
330.2507942
51
349.4114751
0
ARC
8
top_labelLayer
10
7.20684
20
1.2272498
40
0.0994815
50
318.1435579
51
329.7570772
0
ARC
8
top_labelLayer
10
7.2102792
20
1.2244928
40
0.0950806
50
278.895853
51
317.9980846
0
ARC
8
top_labelLayer
10
7.2014024
20
1.2670279
40
0.138494
50
269.7503344
51
279.8028847
0
ARC
8
top_labelLayer
10
7.1999637
20
1.2430612
40
0.1145291
50
253.5435888
51
270.4178662
0
ARC
8
top_labelLayer
10
7.1961544
20
1.2283204
40
0.0993145
50
238.8121355
51
253.2420993
0
ARC
8
top_labelLayer
10
7.1949211
20
1.2258388
40
0.0965532
50
207.7949654
51
238.6756463
0
ARC
8
top_labelLayer
10
7.2125985
20
1.2366641
40
0.1172465
50
205.6569838
51
208.4464598
0
ARC
8
top_labelLayer
10
7.226173
20
1.2423172
40
0.1319325
50
188.9104318
51
205.3174736
0
ARC
8
top_labelLayer
10
7.2720076
20
1.2500789
40
0.178417
50
179.7744623
51
189.0930606
0
ARC
8
top_labelLayer
10
7.2787512
20
1.2520364
40
0.1851635
50
169.2438567
51
180.3884032
0
ARC
8
top_labelLayer
10
7.215876
20
1.264467
40
0.1210741
50
150.710982
51
169.469962
0
ARC
8
top_labelLayer
10
7.1958039
20
1.2747743
40
0.0985289
50
138.1755002
51
150.2283724
0
ARC
8
top_labelLayer
10
7.1924657
20
1.2773367
40
0.0943332
50
99.1759851
51
137.9831897
0
ARC
8
top_labelLayer
10
7.2016575
20
1.2340801
40
0.1385192
50
89.7330653
51
100.0761493
0
ARC
8
top_labelLayer
10
7.2034933
20
1.2527642
40
0.1198394
50
73.5221036
51
90.5691802
0
ARC
8
top_labelLayer
10
7.2105216
20
1.278298
40
0.0933621
50
41.1444441
51
73.2134209
0
ARC
8
top_labelLayer
10
7.1971067
20
1.2667674
40
0.111051
50
13.5013242
51
41.0705243
0
ARC
8
top_labelLayer
10
7.1452791
20
1.253204
40
0.1646165
50
1.1275019
51
13.8801784
0
ARC
8
top_labelLayer
10
7.1000901
20
1.2508035
40
0.2098495
50
359.9939246
51
1.5400229
0
ARC
8
top_labelLayer
10
7.3111257
20
1.2498531
40
0.180583
50
179.7055169
51
187.9165034
0
ARC
8
top_labelLayer
10
7.244902
20
1.240338
40
0.1136803
50
187.7635638
51
200.0977338
0
ARC
8
top_labelLayer
10
7.2084145
20
1.2269687
40
0.0748205
50
200.0844569
51
216.9130832
0
ARC
8
top_labelLayer
10
7.1950896
20
1.2174542
40
0.0584535
50
217.3009345
51
261.7097673
0
ARC
8
top_labelLayer
10
7.2012743
20
1.2469668
40
0.0885691
50
260.5033535
51
270.2484122
0
ARC
8
top_labelLayer
10
7.2024569
20
1.2412275
40
0.082833
50
269.447609
51
284.7260372
0
ARC
8
top_labelLayer
10
7.2090146
20
1.2169114
40
0.0576488
50
284.5658866
51
322.6336771
0
ARC
8
top_labelLayer
10
7.1936807
20
1.2279894
40
0.0765607
50
323.0091564
51
342.6390997
0
ARC
8
top_labelLayer
10
7.1498407
20
1.2423191
40
0.1226809
50
342.3609848
51
353.7544625
0
ARC
8
top_labelLayer
10
7.0851586
20
1.2501192
40
0.187829
50
353.5357407
51
0.2019633
0
ARC
8
top_labelLayer
10
7.0950268
20
1.2516882
40
0.1779619
50
359.7080102
51
7.8970995
0
ARC
8
top_labelLayer
10
7.1602103
20
1.2610316
40
0.1121133
50
7.7442847
51
20.0693381
0
ARC
8
top_labelLayer
10
7.1965254
20
1.2743583
40
0.0734304
50
20.0258843
51
37.4352896
0
ARC
8
top_labelLayer
10
7.2085743
20
1.2829082
40
0.0586684
50
37.9579572
51
80.4007991
0
ARC
8
top_labelLayer
10
7.2017261
20
1.2523482
40
0.0899579
50
79.3458081
51
90.3168378
0
ARC
8
top_labelLayer
10
7.20046
20
1.2574227
40
0.0848855
50
89.4811722
51
103.8795246
0
ARC
8
top_labelLayer
10
7.1933266
20
1.2845907
40
0.0568009
50
103.4679923
51
142.3121952
0
ARC
8
top_labelLayer
10
7.2071917
20
1.2748392
40
0.0737386
50
142.9024596
51
162.3749846
0
ARC
8
top_labelLayer
10
7.2508828
20
1.2602792
40
0.1197891
50
162.0652659
51
173.1671805
0
ARC
8
top_labelLayer
10
7.3189969
20
1.2515931
40
0.1884534
50
173.0088864
51
180.2468285
0
LINE
8
top_labelLayer
10
7.4081232
20
1.163125
11
7.4055451
21
1.163125
0
LINE
8
top_labelLayer
10
7.4081232
20
1.1240234
11
7.4081232
21
1.0271289
0
LINE
8
top_labelLayer
10
7.4081232
20
1.0271289
11
7.3724591
21
1.0271289
0
LINE
8
top_labelLayer
10
7.3724591
20
1.0271289
11
7.3724591
21
1.3683008
0
LINE
8
top_labelLayer
10
7.3724591
20
1.3683008
11
7.401463
21
1.3683008
0
LINE
8
top_labelLayer
10
7.401463
20
1.3683008
11
7.4064044
21
1.3360742
0
LINE
8
top_labelLayer
10
7.4064044
20
1.3360742
11
7.4081232
21
1.3360742
0
LINE
8
top_labelLayer
10
7.4081232
20
1.2587305
11
7.4081232
21
1.2507813
0
ARC
8
top_labelLayer
10
7.4814287
20
1.2367148
40
0.1081813
50
255.7757784
51
270.3181755
0
ARC
8
top_labelLayer
10
7.4783434
20
1.223001
40
0.0941306
50
245.9803426
51
255.5450881
0
ARC
8
top_labelLayer
10
7.4723611
20
1.2090897
40
0.0789892
50
215.5851391
51
245.836428
0
ARC
8
top_labelLayer
10
7.0707388
20
1.1208147
40
0.3374691
50
2.9501022
51
7.2024288
0
ARC
8
top_labelLayer
10
7.1254947
20
1.1238703
40
0.2826286
50
0.0310411
51
2.9027717
0
ARC
8
top_labelLayer
10
7.4866856
20
1.2808989
40
0.096002
50
132.3564253
51
144.9191747
0
ARC
8
top_labelLayer
10
7.47198
20
1.2969414
40
0.0742394
50
115.4010435
51
132.3112966
0
ARC
8
top_labelLayer
10
7.4777142
20
1.282979
40
0.0893154
50
97.706588
51
114.8818612
0
ARC
8
top_labelLayer
10
7.4817191
20
1.2570085
40
0.1155895
50
89.8461629
51
97.947497
0
ARC
8
top_labelLayer
10
7.4831345
20
1.2632921
40
0.1093111
50
74.1865624
51
90.5792205
0
ARC
8
top_labelLayer
10
7.4906989
20
1.2907834
40
0.080799
50
38.0518896
51
74.0352506
0
ARC
8
top_labelLayer
10
7.4698359
20
1.2747914
40
0.1070851
50
16.3354233
51
37.9093367
0
ARC
8
top_labelLayer
10
7.415023
20
1.2579094
40
0.1644353
50
4.5763921
51
16.6085192
0
ARC
8
top_labelLayer
10
7.3475888
20
1.2511873
40
0.2321948
50
359.8997951
51
4.9021652
0
ARC
8
top_labelLayer
10
7.3706833
20
1.2495465
40
0.2091037
50
350.6564506
51
0.338344
0
ARC
8
top_labelLayer
10
7.4435794
20
1.2371479
40
0.1351622
50
335.8306045
51
350.8256344
0
ARC
8
top_labelLayer
10
7.4756433
20
1.2233088
40
0.100244
50
321.3163506
51
335.5435899
0
ARC
8
top_labelLayer
10
7.487904
20
1.2133189
40
0.0844294
50
274.0640377
51
321.4079861
0
ARC
8
top_labelLayer
10
7.4821947
20
1.2494478
40
0.1209128
50
269.9216641
51
275.5494648
0
ARC
8
top_labelLayer
10
7.4761386
20
1.2395511
40
0.1027562
50
89.5903914
51
100.3507462
0
ARC
8
top_labelLayer
10
7.4687938
20
1.2780981
40
0.0635177
50
100.0806624
51
118.2691821
0
ARC
8
top_labelLayer
10
7.4612956
20
1.29269
40
0.0471158
50
118.6425574
51
141.0261789
0
ARC
8
top_labelLayer
10
7.4727436
20
1.2846117
40
0.0611038
50
141.8889792
51
160.5969581
0
ARC
8
top_labelLayer
10
7.5129362
20
1.2698639
40
0.1039145
50
160.2894211
51
171.2458673
0
ARC
8
top_labelLayer
10
7.5790383
20
1.2592046
40
0.1708696
50
171.0866631
51
178.3245809
0
ARC
8
top_labelLayer
10
7.6346031
20
1.2565477
40
0.2264906
50
178.0637241
51
179.4478133
0
ARC
8
top_labelLayer
10
7.6439305
20
1.2498604
40
0.2358091
50
179.7762522
51
185.7074794
0
ARC
8
top_labelLayer
10
7.5509819
20
1.2402846
40
0.1423692
50
185.5929595
51
194.2041244
0
ARC
8
top_labelLayer
10
7.4914013
20
1.2248246
40
0.0808174
50
193.9434441
51
208.0224327
0
ARC
8
top_labelLayer
10
7.4673064
20
1.2125661
40
0.0537906
50
208.5538041
51
217.5605883
0
ARC
8
top_labelLayer
10
7.4653425
20
1.2117485
40
0.0517382
50
218.1686195
51
253.8047977
0
ARC
8
top_labelLayer
10
7.4749395
20
1.2413363
40
0.0828342
50
253.1381712
51
266.8482394
0
ARC
8
top_labelLayer
10
7.4776274
20
1.2730086
40
0.1146101
50
266.3770608
51
270.0525763
0
ARC
8
top_labelLayer
10
7.4785446
20
1.2184853
40
0.0600923
50
269.2257426
51
292.0431884
0
ARC
8
top_labelLayer
10
7.4793555
20
1.2136533
40
0.0553195
50
293.1429536
51
324.1354948
0
ARC
8
top_labelLayer
10
7.4673552
20
1.2238199
40
0.0710112
50
323.160454
51
325.0156693
0
ARC
8
top_labelLayer
10
7.4544093
20
1.2318515
40
0.0862269
50
325.5752898
51
344.1503675
0
ARC
8
top_labelLayer
10
7.4097877
20
1.2450423
40
0.1327556
50
343.9334859
51
355.1134989
0
ARC
8
top_labelLayer
10
7.3528459
20
1.2508214
40
0.1899848
50
354.8397521
51
0.1174702
0
ARC
8
top_labelLayer
10
7.3628872
20
1.2521206
40
0.1799453
50
359.710347
51
7.8617434
0
ARC
8
top_labelLayer
10
7.4282969
20
1.2614465
40
0.1138752
50
7.7151993
51
19.8860134
0
ARC
8
top_labelLayer
10
7.4642861
20
1.274446
40
0.0756103
50
19.8991839
51
35.8977358
0
ARC
8
top_labelLayer
10
7.4803794
20
1.2866481
40
0.0554208
50
35.4341938
51
84.7848976
0
ARC
8
top_labelLayer
10
7.4769981
20
1.2659453
40
0.0763596
50
83.6701772
51
90.0937634
0
LINE
8
back_outsideCutPath
10
0
20
8.65
11
0
21
7.0675
0
LINE
8
back_outsideCutPath
10
0
20
7.0675
11
0.115
21
7.0675
0
LINE
8
back_outsideCutPath
10
0.115
20
7.0675
11
0.115
21
6.0325
0
LINE
8
back_outsideCutPath
10
0.115
20
6.0325
11
0
21
6.0325
0
LINE
8
back_outsideCutPath
10
0
20
6.0325
11
0
21
4.9975
0
LINE
8
back_outsideCutPath
10
0
20
4.9975
11
0
21
4.45
0
LINE
8
back_outsideCutPath
10
0
20
4.45
11
1.0825
21
4.45
0
LINE
8
back_outsideCutPath
10
1.0825
20
4.45
11
1.0825
21
4.565
0
LINE
8
back_outsideCutPath
10
1.0825
20
4.565
11
2.1175
21
4.565
0
LINE
8
back_outsideCutPath
10
2.1175
20
4.565
11
2.1175
21
4.45
0
LINE
8
back_outsideCutPath
10
2.1175
20
4.45
11
3.2
21
4.45
0
LINE
8
back_outsideCutPath
10
3.2
20
4.45
11
3.2
21
6.0325
0
LINE
8
back_outsideCutPath
10
3.2
20
6.0325
11
3.085
21
6.0325
0
LINE
8
back_outsideCutPath
10
3.085
20
6.0325
11
3.085
21
7.0675
0
LINE
8
back_outsideCutPath
10
3.085
20
7.0675
11
3.2
21
7.0675
0
LINE
8
back_outsideCutPath
10
3.2
20
7.0675
11
3.2
21
8.1025
0
LINE
8
back_outsideCutPath
10
3.2
20
8.1025
11
3.2
21
8.65
0
LINE
8
back_outsideCutPath
10
3.2
20
8.65
11
2.1175
21
8.65
0
LINE
8
back_outsideCutPath
10
2.1175
20
8.65
11
2.1175
21
8.535
0
LINE
8
back_outsideCutPath
10
2.1175
20
8.535
11
1.0825
21
8.535
0
LINE
8
back_outsideCutPath
10
1.0825
20
8.535
11
1.0825
21
8.65
0
LINE
8
back_outsideCutPath
10
1.0825
20
8.65
11
0
21
8.65
0
LINE
8
back_labelLayer
10
0.9884375
20
6.354066
11
0.9846875
21
6.354066
0
LINE
8
back_labelLayer
10
0.9846875
20
6.354066
11
0.97375
21
6.3100035
0
LINE
8
back_labelLayer
10
0.97375
20
6.3100035
11
0.9365625
21
6.3100035
0
LINE
8
back_labelLayer
10
0.9365625
20
6.3100035
11
0.9365625
21
6.7962535
0
LINE
8
back_labelLayer
10
0.9365625
20
6.7962535
11
0.9884375
21
6.7962535
0
LINE
8
back_labelLayer
10
0.9884375
20
6.7962535
11
0.9884375
21
6.6781285
0
LINE
8
back_labelLayer
10
0.9859375
20
6.6068785
11
0.9884375
21
6.6068785
0
ARC
8
back_labelLayer
10
1.0974944
20
6.4995924
40
0.1585437
50
74.2391495
51
90.5626399
0
ARC
8
back_labelLayer
10
1.1079769
20
6.5380476
40
0.1186876
50
38.5632015
51
74.0668665
0
ARC
8
back_labelLayer
10
1.0810014
20
6.5170717
40
0.1528568
50
16.4707527
51
38.4078795
0
ARC
8
back_labelLayer
10
1.0032643
20
6.4926969
40
0.2343185
50
5.133983
51
16.7969627
0
ARC
8
back_labelLayer
10
0.9051336
20
6.4822734
40
0.3329923
50
359.8782845
51
5.409355
0
ARC
8
back_labelLayer
10
0.9339628
20
6.4797726
40
0.3041675
50
350.6564648
51
0.3378248
0
ARC
8
back_labelLayer
10
1.0400155
20
6.4617344
40
0.1965942
50
335.8303208
51
350.8257569
0
ARC
8
back_labelLayer
10
1.0866548
20
6.4416028
40
0.1458025
50
321.3158314
51
335.5437496
0
ARC
8
back_labelLayer
10
1.1044827
20
6.4270746
40
0.1228057
50
274.0638893
51
321.4081667
0
ARC
8
back_labelLayer
10
1.0961753
20
6.4797096
40
0.1759562
50
269.9225571
51
275.5476961
0
ARC
8
back_labelLayer
10
1.0950621
20
6.4610936
40
0.1573426
50
255.775268
51
270.3187915
0
ARC
8
back_labelLayer
10
1.0905704
20
6.4411435
40
0.1369015
50
245.9799123
51
255.545762
0
ARC
8
back_labelLayer
10
1.0818758
20
6.4209249
40
0.1148949
50
215.5852525
51
245.8361068
0
ARC
8
back_labelLayer
10
-0.0926782
20
6.6772087
40
1.0811161
50
358.1118504
51
0.0487502
0
ARC
8
back_labelLayer
10
0.20816
20
6.6670964
40
0.7801081
50
355.7233038
51
358.1261449
0
ARC
8
back_labelLayer
10
0.3780578
20
6.6551056
40
0.6097897
50
355.4638565
51
355.6563694
0
ARC
8
back_labelLayer
10
1.0851822
20
6.5394158
40
0.1179439
50
95.1835674
51
145.1108781
0
ARC
8
back_labelLayer
10
1.095549
20
6.4809524
40
0.1771765
50
89.87435
51
96.8143894
0
ARC
8
back_labelLayer
10
1.0873506
20
6.4689274
40
0.1457677
50
89.5727705
51
100.7324773
0
ARC
8
back_labelLayer
10
1.0765603
20
6.5234417
40
0.0901987
50
100.4468437
51
119.6696521
0
ARC
8
back_labelLayer
10
1.0665535
20
6.5421523
40
0.06899
50
120.1404186
51
142.4250615
0
ARC
8
back_labelLayer
10
1.0831034
20
6.5312031
40
0.0887948
50
143.3376548
51
161.2566534
0
ARC
8
back_labelLayer
10
1.1523326
20
6.5066221
40
0.1622545
50
160.8922404
51
171.2335306
0
ARC
8
back_labelLayer
10
1.2679393
20
6.4879737
40
0.2793539
50
171.0671337
51
177.8454288
0
ARC
8
back_labelLayer
10
1.3882493
20
6.4818582
40
0.3998119
50
177.6178551
51
180.0418717
0
ARC
8
back_labelLayer
10
1.3313836
20
6.4802249
40
0.3429487
50
179.7759335
51
185.7079628
0
ARC
8
back_labelLayer
10
1.1962103
20
6.4662947
40
0.2070606
50
185.5925682
51
194.2046454
0
ARC
8
back_labelLayer
10
1.1095678
20
6.4438092
40
0.1175506
50
193.9428145
51
208.0220492
0
ARC
8
back_labelLayer
10
1.0745198
20
6.4259783
40
0.0782377
50
208.553288
51
217.5604378
0
ARC
8
back_labelLayer
10
1.0716663
20
6.4247925
40
0.0752571
50
218.1691405
51
253.8045726
0
ARC
8
back_labelLayer
10
1.0856239
20
6.4678225
40
0.1204805
50
253.1378227
51
266.848526
0
ARC
8
back_labelLayer
10
1.0895359
20
6.5139885
40
0.1667974
50
266.3785742
51
270.0520661
0
ARC
8
back_labelLayer
10
1.0907948
20
6.4505928
40
0.1034077
50
269.3864403
51
285.8633557
0
ARC
8
back_labelLayer
10
1.0984767
20
6.422831
40
0.0746036
50
286.0163695
51
326.8495041
0
ARC
8
back_labelLayer
10
1.0613972
20
6.4473943
40
0.1190803
50
326.710549
51
343.6665446
0
ARC
8
back_labelLayer
10
0.9919895
20
6.4686054
40
0.1916539
50
343.4167031
51
353.6369437
0
ARC
8
back_labelLayer
10
0.8871463
20
6.4810453
40
0.2972307
50
353.4935823
51
0.2208578
0
ARC
8
back_labelLayer
10
0.8779027
20
6.4834332
40
0.3064748
50
359.7677701
51
6.3093681
0
ARC
8
back_labelLayer
10
0.9933461
20
6.4966812
40
0.1902752
50
6.1645738
51
16.0396263
0
ARC
8
back_labelLayer
10
1.0677183
20
6.5185999
40
0.1127431
50
15.7772475
51
32.0158621
0
ARC
8
back_labelLayer
10
1.091029
20
6.5319664
40
0.0858978
50
32.6994553
51
35.5254556
0
ARC
8
back_labelLayer
10
1.099381
20
6.5379043
40
0.0756501
50
35.5409795
51
79.800803
0
ARC
8
back_labelLayer
10
1.0892235
20
6.4947262
40
0.1199674
50
78.6777047
51
90.3753986
0
LINE
8
back_labelLayer
10
1.5778125
20
6.3100035
11
1.539375
21
6.3100035
0
LINE
8
back_labelLayer
10
1.539375
20
6.3100035
11
1.5290625
21
6.3587535
0
LINE
8
back_labelLayer
10
1.5290625
20
6.3587535
11
1.5265625
21
6.3587535
0
LINE
8
back_labelLayer
10
1.4690625
20
6.513441
11
1.5271875
21
6.515316
0
LINE
8
back_labelLayer
10
1.5271875
20
6.515316
11
1.5271875
21
6.536566
0
LINE
8
back_labelLayer
10
1.3575
20
6.589066
11
1.3415625
21
6.6287535
0
LINE
8
back_labelLayer
10
1.5778125
20
6.5437535
11
1.5778125
21
6.3100035
0
LINE
8
back_labelLayer
10
1.5259375
20
6.4475035
11
1.5259375
21
6.478441
0
LINE
8
back_labelLayer
10
1.5259375
20
6.478441
11
1.4740625
21
6.4762535
0
ARC
8
back_labelLayer
10
1.35778
20
6.4920172
40
0.2150505
50
314.7442722
51
321.7068496
0
ARC
8
back_labelLayer
10
1.4106165
20
6.4383301
40
0.1397255
50
304.8484303
51
314.8530504
0
ARC
8
back_labelLayer
10
1.4359948
20
6.4022059
40
0.0955784
50
294.3935258
51
304.7372499
0
ARC
8
back_labelLayer
10
1.4273242
20
6.424674
40
0.1196297
50
281.2979977
51
293.7312003
0
ARC
8
back_labelLayer
10
1.415864
20
6.4802096
40
0.1763347
50
272.9331589
51
281.4143254
0
ARC
8
back_labelLayer
10
1.4120592
20
6.5372326
40
0.2334793
50
269.954797
51
273.1495879
0
ARC
8
back_labelLayer
10
1.4107513
20
6.4629562
40
0.1592067
50
258.6723083
51
270.4043938
0
ARC
8
back_labelLayer
10
1.3996925
20
6.4100493
40
0.1051591
50
238.3271643
51
258.9182833
0
ARC
8
back_labelLayer
10
1.3920752
20
6.3961501
40
0.0893343
50
227.768719
51
237.8043077
0
ARC
8
back_labelLayer
10
1.389687
20
6.3928192
40
0.0852643
50
192.0825966
51
227.452509
0
ARC
8
back_labelLayer
10
1.4336467
20
6.4036554
40
0.1305257
50
179.5453752
51
192.6946991
0
ARC
8
back_labelLayer
10
1.3928097
20
6.4083823
40
0.0897606
50
115.490352
51
182.3568961
0
ARC
8
back_labelLayer
10
1.4377647
20
6.3259256
40
0.1836082
50
101.3570993
51
117.0798474
0
ARC
8
back_labelLayer
10
1.4738627
20
6.1572365
40
0.3561094
50
92.4694053
51
101.7066267
0
ARC
8
back_labelLayer
10
1.4842662
20
6.0062526
40
0.5074162
50
91.7170092
51
92.9084904
0
ARC
8
back_labelLayer
10
1.3781901
20
6.5373648
40
0.1489996
50
359.69286
51
8.0029912
0
ARC
8
back_labelLayer
10
1.434561
20
6.5455758
40
0.0920347
50
7.8268907
51
20.6046461
0
ARC
8
back_labelLayer
10
1.4664547
20
6.5577787
40
0.0578871
50
20.4083963
51
41.4490314
0
ARC
8
back_labelLayer
10
1.4711619
20
6.5603656
40
0.0526596
50
42.7296853
51
71.037889
0
ARC
8
back_labelLayer
10
1.4600691
20
6.5302052
40
0.0847907
50
70.5713192
51
83.9935169
0
ARC
8
back_labelLayer
10
1.4547672
20
6.4871464
40
0.1281703
50
83.6506163
51
90.1753293
0
ARC
8
back_labelLayer
10
1.4556961
20
6.4464357
40
0.1688855
50
90.4481889
51
103.7669242
0
ARC
8
back_labelLayer
10
1.4755646
20
6.3626542
40
0.2549891
50
103.6231158
51
112.4317844
0
ARC
8
back_labelLayer
10
1.5096207
20
6.2766762
40
0.3474594
50
112.2127171
51
115.9641357
0
ARC
8
back_labelLayer
10
1.4550886
20
6.4182181
40
0.2391931
50
106.357259
51
118.3346862
0
ARC
8
back_labelLayer
10
1.4653204
20
6.3865853
40
0.2724285
50
104.5170565
51
106.5484495
0
ARC
8
back_labelLayer
10
1.4578004
20
6.4178854
40
0.2402434
50
90.0716542
51
104.6520531
0
ARC
8
back_labelLayer
10
1.4587424
20
6.4390461
40
0.2190859
50
81.567758
51
90.3249072
0
ARC
8
back_labelLayer
10
1.4714079
20
6.5215597
40
0.1356078
50
68.2275611
51
81.7489688
0
ARC
8
back_labelLayer
10
1.4890534
20
6.5654643
40
0.0882902
50
47.8686319
51
68.2934516
0
ARC
8
back_labelLayer
10
1.4919168
20
6.5711827
40
0.0821462
50
19.2333195
51
46.6740877
0
ARC
8
back_labelLayer
10
1.444203
20
6.553435
40
0.1330473
50
6.3384685
51
19.6809676
0
ARC
8
back_labelLayer
10
1.3737062
20
6.5444581
40
0.2041074
50
359.8022235
51
6.6582202
0
ARC
8
back_labelLayer
10
1.4232373
20
6.4893857
40
0.1428235
50
269.5788459
51
282.0413061
0
ARC
8
back_labelLayer
10
1.4336551
20
6.4431775
40
0.0954602
50
281.7119555
51
306.45948
0
ARC
8
back_labelLayer
10
1.4382785
20
6.4355748
40
0.0866017
50
306.9883473
51
313.8567609
0
ARC
8
back_labelLayer
10
1.4377259
20
6.435423
40
0.0868766
50
314.1889364
51
347.4272524
0
ARC
8
back_labelLayer
10
1.3942106
20
6.4463289
40
0.1317277
50
346.9174743
51
0.2827126
0
ARC
8
back_labelLayer
10
1.3540507
20
6.4475033
40
0.1718868
50
359.8251948
51
0.0000765
0
ARC
8
back_labelLayer
10
1.4863955
20
6.0956416
40
0.3808117
50
91.8559079
51
96.4482991
0
ARC
8
back_labelLayer
10
1.4692184
20
6.2442331
40
0.2312315
50
96.3539807
51
102.9958211
0
ARC
8
back_labelLayer
10
1.4459098
20
6.3432571
40
0.1295028
50
102.7998115
51
113.2430192
0
ARC
8
back_labelLayer
10
1.4266947
20
6.3892165
40
0.0796921
50
113.5891696
51
121.6789148
0
ARC
8
back_labelLayer
10
1.4133311
20
6.4095742
40
0.0553537
50
120.9735256
51
172.4179366
0
ARC
8
back_labelLayer
10
1.4394419
20
6.4043592
40
0.0819425
50
171.2122468
51
180.2049806
0
ARC
8
back_labelLayer
10
1.4316358
20
6.4034535
40
0.0741383
50
179.5265977
51
192.7782051
0
ARC
8
back_labelLayer
10
1.4065541
20
6.3973744
40
0.0483346
50
192.3265723
51
222.0581306
0
ARC
8
back_labelLayer
10
1.4047237
20
6.3962947
40
0.0462544
50
222.5839365
51
229.2508882
0
ARC
8
back_labelLayer
10
1.4109911
20
6.404373
40
0.0564678
50
229.7836826
51
254.2732046
0
ARC
8
back_labelLayer
10
1.4193888
20
6.4323575
40
0.0856825
50
253.9400678
51
266.4529115
0
ARC
8
back_labelLayer
10
1.4220645
20
6.463209
40
0.1166429
50
266.0787021
51
270.060406
0
LINE
8
back_labelLayer
10
1.913125
20
6.640941
11
1.8971875
21
6.5968785
0
LINE
8
back_labelLayer
10
1.908125
20
6.3675035
11
1.908125
21
6.321566
0
ARC
8
back_labelLayer
10
1.8199079
20
6.4976273
40
0.1938809
50
256.4245991
51
270.4889782
0
ARC
8
back_labelLayer
10
1.8044149
20
6.4371575
40
0.1314666
50
221.7976722
51
256.8021821
0
ARC
8
back_labelLayer
10
1.8194183
20
6.4482428
40
0.15005
50
196.0167075
51
221.1349316
0
ARC
8
back_labelLayer
10
1.8948081
20
6.4712874
40
0.2288757
50
183.5910023
51
196.3543197
0
ARC
8
back_labelLayer
10
1.979309
20
6.4787312
40
0.3136842
50
179.9388465
51
183.9812591
0
ARC
8
back_labelLayer
10
1.9518426
20
6.4809099
40
0.2862235
50
169.8979639
51
180.3691036
0
ARC
8
back_labelLayer
10
1.8522019
20
6.4993413
40
0.1848958
50
153.0873785
51
170.1051139
0
ARC
8
back_labelLayer
10
1.8143942
20
6.5174083
40
0.1430086
50
138.654965
51
152.6856715
0
ARC
8
back_labelLayer
10
1.8073413
20
6.5225474
40
0.1343211
50
101.4914171
51
138.3133202
0
ARC
8
back_labelLayer
10
1.82354
20
6.4551278
40
0.2036309
50
89.5891897
51
102.1787117
0
ARC
8
back_labelLayer
10
1.8247846
20
6.4246508
40
0.2341029
50
77.7702982
51
89.9472896
0
ARC
8
back_labelLayer
10
1.8203125
20
6.4000386
40
0.2591053
50
74.6808087
51
77.9567031
0
ARC
8
back_labelLayer
10
1.8442883
20
6.4869205
40
0.1689761
50
70.0944665
51
74.7384909
0
ARC
8
back_labelLayer
10
1.8670323
20
6.5492591
40
0.1026185
50
63.5052126
51
70.1842082
0
ARC
8
back_labelLayer
10
1.8819709
20
6.5799999
40
0.0684428
50
62.9231297
51
63.2169307
0
ARC
8
back_labelLayer
10
1.8119762
20
6.3824348
40
0.2307533
50
68.3291336
51
74.8833756
0
ARC
8
back_labelLayer
10
1.799754
20
6.3390723
40
0.2758031
50
74.7813556
51
77.4491807
0
ARC
8
back_labelLayer
10
1.8125722
20
6.3992156
40
0.2143123
50
77.3001204
51
81.7341483
0
ARC
8
back_labelLayer
10
1.8218958
20
6.4641526
40
0.1487096
50
81.6921495
51
87.506901
0
ARC
8
back_labelLayer
10
1.8237046
20
6.4980028
40
0.1148131
50
87.6738742
51
89.9773204
0
ARC
8
back_labelLayer
10
1.8211784
20
6.4977794
40
0.1150654
50
88.7193718
51
112.5669403
0
ARC
8
back_labelLayer
10
1.8130017
20
6.5248117
40
0.0870109
50
114.4264107
51
161.6634913
0
ARC
8
back_labelLayer
10
1.8942196
20
6.4930206
40
0.1741679
50
160.1415341
51
175.1369745
0
ARC
8
back_labelLayer
10
2.0060591
20
6.4804643
40
0.2866851
50
174.5313778
51
180.1545335
0
ARC
8
back_labelLayer
10
1.9705972
20
6.4783937
40
0.2512255
50
179.7041163
51
188.0744597
0
ARC
8
back_labelLayer
10
1.8801059
20
6.4651524
40
0.159772
50
187.931148
51
200.3885754
0
ARC
8
back_labelLayer
10
1.8311831
20
6.4470294
40
0.1076003
50
200.4185934
51
216.639379
0
ARC
8
back_labelLayer
10
1.8106705
20
6.4323648
40
0.0823908
50
216.9693641
51
261.3102465
0
ARC
8
back_labelLayer
10
1.8197217
20
6.4745643
40
0.1254995
50
260.1360885
51
270.2697334
0
ARC
8
back_labelLayer
10
1.8193056
20
6.5662135
40
0.2171498
50
270.2656648
51
286.2893499
0
ARC
8
back_labelLayer
10
1.8060959
20
6.6154689
40
0.2681356
50
286.0465924
51
292.3654623
0
ARC
8
back_labelLayer
10
1.8412594
20
6.4531091
40
0.1475621
50
282.0345186
51
296.9450111
0
ARC
8
back_labelLayer
10
1.8260877
20
6.5214782
40
0.2175928
50
272.5976432
51
282.1881066
0
ARC
8
back_labelLayer
10
1.8217376
20
6.5880405
40
0.284287
50
269.9647194
51
272.8654752
0
LINE
8
back_labelLayer
10
2.038125
20
6.485316
11
2.040625
21
6.485316
0
LINE
8
back_labelLayer
10
2.0815625
20
6.535316
11
2.1921875
21
6.6525035
0
LINE
8
back_labelLayer
10
2.1921875
20
6.6525035
11
2.25375
21
6.6525035
0
LINE
8
back_labelLayer
10
2.25375
20
6.6525035
11
2.115
21
6.506566
0
LINE
8
back_labelLayer
10
2.115
20
6.506566
11
2.2634375
21
6.3100035
0
LINE
8
back_labelLayer
10
2.2634375
20
6.3100035
11
2.200625
21
6.3100035
0
LINE
8
back_labelLayer
10
2.200625
20
6.3100035
11
2.0796875
21
6.4718785
0
LINE
8
back_labelLayer
10
2.0796875
20
6.4718785
11
2.040625
21
6.4381285
0
LINE
8
back_labelLayer
10
2.040625
20
6.4381285
11
2.040625
21
6.3100035
0
LINE
8
back_labelLayer
10
2.040625
20
6.3100035
11
1.989375
21
6.3100035
0
LINE
8
back_labelLayer
10
1.989375
20
6.3100035
11
1.989375
21
6.7962535
0
LINE
8
back_labelLayer
10
1.989375
20
6.7962535
11
2.040625
21
6.7962535
0
LINE
8
back_labelLayer
10
2.040625
20
6.7962535
11
2.040625
21
6.538441
0
ARC
8
back_labelLayer
10
2.2912649
20
6.3078988
40
0.3070785
50
142.3226983
51
144.7069652
0
ARC
8
back_labelLayer
10
2.4546686
20
6.1818695
40
0.513438
50
140.4326978
51
142.3368355
0
ARC
8
back_labelLayer
10
2.6672581
20
6.0068878
40
0.788779
50
139.2792022
51
140.4709608
0
ARC
8
back_labelLayer
10
2.9135196
20
5.7951392
40
1.1135593
50
138.3410988
51
139.2879844
0
ARC
8
back_labelLayer
10
1.6953258
20
6.53908
40
0.3452998
50
358.2733008
51
359.8939778
0
ARC
8
back_labelLayer
10
1.4269414
20
6.5465575
40
0.6137879
50
357.5026743
51
358.3305052
0
ARC
8
back_labelLayer
10
1.023736
20
6.5643487
40
1.0173857
50
356.6323873
51
357.491104
0
ARC
8
back_labelLayer
10
0.3536615
20
6.6034253
40
1.6885986
50
356.0332692
51
356.6443439
0
ARC
8
back_labelLayer
10
-0.3361349
20
6.6507449
40
2.3800159
50
356.0143014
51
356.0455937
0
LINE
8
right_outsideCutPath
10
3.44
20
8.65
11
3.44
21
7.0675
0
LINE
8
right_outsideCutPath
10
3.44
20
7.0675
11
3.325
21
7.0675
0
LINE
8
right_outsideCutPath
10
3.325
20
7.0675
11
3.325
21
6.0325
0
LINE
8
right_outsideCutPath
10
3.325
20
6.0325
11
3.44
21
6.0325
0
LINE
8
right_outsideCutPath
10
3.44
20
6.0325
11
3.44
21
4.9975
0
LINE
8
right_outsideCutPath
10
3.44
20
4.9975
11
3.44
21
4.45
0
LINE
8
right_outsideCutPath
10
3.44
20
4.45
11
3.9075
21
4.45
0
LINE
8
right_outsideCutPath
10
3.9075
20
4.45
11
3.9075
21
4.565
0
LINE
8
right_outsideCutPath
10
3.9075
20
4.565
11
4.9425
21
4.565
0
LINE
8
right_outsideCutPath
10
4.9425
20
4.565
11
4.9425
21
4.45
0
LINE
8
right_outsideCutPath
10
4.9425
20
4.45
11
5.41
21
4.45
0
LINE
8
right_outsideCutPath
10
5.41
20
4.45
11
5.41
21
6.0325
0
LINE
8
right_outsideCutPath
10
5.41
20
6.0325
11
5.525
21
6.0325
0
LINE
8
right_outsideCutPath
10
5.525
20
6.0325
11
5.525
21
7.0675
0
LINE
8
right_outsideCutPath
10
5.525
20
7.0675
11
5.41
21
7.0675
0
LINE
8
right_outsideCutPath
10
5.41
20
7.0675
11
5.41
21
8.1025
0
LINE
8
right_outsideCutPath
10
5.41
20
8.1025
11
5.41
21
8.65
0
LINE
8
right_outsideCutPath
10
5.41
20
8.65
11
4.9425
21
8.65
0
LINE
8
right_outsideCutPath
10
4.9425
20
8.65
11
4.9425
21
8.535
0
LINE
8
right_outsideCutPath
10
4.9425
20
8.535
11
3.9075
21
8.535
0
LINE
8
right_outsideCutPath
10
3.9075
20
8.535
11
3.9075
21
8.65
0
LINE
8
right_outsideCutPath
10
3.9075
20
8.65
11
3.44
21
8.65
0
LINE
8
right_labelLayer
10
4.1054199
20
6.6728918
11
4.1004785
21
6.6398059
0
LINE
8
right_labelLayer
10
4.0055176
20
6.5620324
11
4.0055176
21
6.4357043
0
LINE
8
right_labelLayer
10
4.0055176
20
6.4357043
11
3.9698535
21
6.4357043
0
LINE
8
right_labelLayer
10
3.9698535
20
6.4357043
11
3.9698535
21
6.6711731
0
LINE
8
right_labelLayer
10
3.9698535
20
6.6711731
11
3.9992871
21
6.6711731
0
LINE
8
right_labelLayer
10
3.9992871
20
6.6711731
11
4.0033691
21
6.6275598
0
LINE
8
right_labelLayer
10
4.0033691
20
6.6275598
11
4.0050879
21
6.6275598
0
ARC
8
right_labelLayer
10
4.0776392
20
6.5117039
40
0.1637665
50
84.9926902
51
90.127297
0
ARC
8
right_labelLayer
10
4.0815719
20
6.5557867
40
0.1195087
50
78.4893124
51
85.026227
0
ARC
8
right_labelLayer
10
4.0662948
20
6.4862941
40
0.1572717
50
77.4463108
51
81.6345501
0
ARC
8
right_labelLayer
10
4.0731584
20
6.5335639
40
0.1095063
50
81.5892701
51
87.1913162
0
ARC
8
right_labelLayer
10
4.074652
20
6.559501
40
0.0835275
50
87.342817
51
89.9689658
0
ARC
8
right_labelLayer
10
4.074302
20
6.5812347
40
0.0617952
50
89.6335171
51
137.088142
0
ARC
8
right_labelLayer
10
4.0895059
20
6.5641469
40
0.0845928
50
135.6228399
51
138.8377287
0
ARC
8
right_labelLayer
10
4.087247
20
6.5663488
40
0.0814431
50
138.957949
51
174.5419111
0
ARC
8
right_labelLayer
10
4.1137578
20
6.562201
40
0.1082402
50
173.6909984
51
180.0891981
0
ARC
8
right_labelLayer
10
4.1100196
20
6.5684416
40
0.1204393
50
139.4139128
51
150.6032156
0
ARC
8
right_labelLayer
10
4.088421
20
6.5869496
40
0.0919956
50
124.2315111
51
139.4162362
0
ARC
8
right_labelLayer
10
4.0768776
20
6.6043773
40
0.0710938
50
89.6793983
51
124.4410263
0
LINE
8
right_labelLayer
10
4.185127
20
6.6711731
11
4.185127
21
6.4357043
0
LINE
8
right_labelLayer
10
4.185127
20
6.4357043
11
4.1494629
21
6.4357043
0
LINE
8
right_labelLayer
10
4.1494629
20
6.4357043
11
4.1494629
21
6.6711731
0
LINE
8
right_labelLayer
10
4.1494629
20
6.6711731
11
4.185127
21
6.6711731
0
ARC
8
right_labelLayer
10
4.185963
20
6.7352273
40
0.0395086
50
170.8441835
51
180.3562321
0
ARC
8
right_labelLayer
10
4.1711821
20
6.7376985
40
0.024523
50
155.9672908
51
171.0493681
0
ARC
8
right_labelLayer
10
4.1640146
20
6.7408789
40
0.0166818
50
133.7896506
51
155.9179348
0
ARC
8
right_labelLayer
10
4.1666594
20
6.7379542
40
0.0206235
50
92.644419
51
133.4711029
0
ARC
8
right_labelLayer
10
4.1674923
20
6.7314209
40
0.0271935
50
89.9631358
51
93.7623032
0
ARC
8
right_labelLayer
10
4.1678355
20
6.7376046
40
0.0210124
50
46.3702126
51
90.8882041
0
ARC
8
right_labelLayer
10
4.1699278
20
6.7397638
40
0.0180059
50
17.7242133
51
46.4483959
0
ARC
8
right_labelLayer
10
4.160168
20
6.7364042
40
0.0283261
50
4.9430336
51
18.1872751
0
ARC
8
right_labelLayer
10
4.1477822
20
6.7350658
40
0.0407823
50
359.8818677
51
5.3170967
0
ARC
8
right_labelLayer
10
4.1516658
20
6.7347311
40
0.0368995
50
349.8343747
51
0.3890758
0
ARC
8
right_labelLayer
10
4.1650979
20
6.7322257
40
0.0232363
50
332.6323537
51
350.0696716
0
ARC
8
right_labelLayer
10
4.1703295
20
6.7296418
40
0.0174028
50
313.614259
51
332.2690078
0
ARC
8
right_labelLayer
10
4.1678083
20
6.7319367
40
0.0208049
50
269.1778911
51
314.2818562
0
ARC
8
right_labelLayer
10
4.1672738
20
6.7337894
40
0.0226566
50
250.5008557
51
270.5966962
0
ARC
8
right_labelLayer
10
4.1665892
20
6.7312257
40
0.0200126
50
225.1314143
51
249.8983229
0
ARC
8
right_labelLayer
10
4.1655156
20
6.7300387
40
0.018414
50
197.7947594
51
224.8934232
0
ARC
8
right_labelLayer
10
4.1755611
20
6.7334814
40
0.0290318
50
184.9939311
51
198.2052939
0
ARC
8
right_labelLayer
10
4.1886108
20
6.7348959
40
0.0421558
50
179.8833658
51
185.3651527
0
LINE
8
right_labelLayer
10
4.372041
20
6.6711731
11
4.4534668
21
6.6711731
0
LINE
8
right_labelLayer
10
4.4534668
20
6.6711731
11
4.4534668
21
6.6486145
0
LINE
8
right_labelLayer
10
4.4534668
20
6.6486145
11
4.4098535
21
6.6434582
0
LINE
8
right_labelLayer
10
4.329502
20
6.4730871
11
4.3711816
21
6.4730871
0
LINE
8
right_labelLayer
10
4.3597949
20
6.4410754
11
4.317041
21
6.4410754
0
ARC
8
right_labelLayer
10
4.364405
20
6.6074899
40
0.0579593
50
29.459232
51
38.3583771
0
ARC
8
right_labelLayer
10
4.3407178
20
6.59397
40
0.085233
50
23.1840989
51
29.5415167
0
ARC
8
right_labelLayer
10
4.3183027
20
6.5840207
40
0.1097555
50
21.2498904
51
23.3518438
0
ARC
8
right_labelLayer
10
4.3565401
20
6.5992266
40
0.0686074
50
6.8503401
51
20.988151
0
ARC
8
right_labelLayer
10
4.3372281
20
6.5966057
40
0.0880945
50
359.8710668
51
7.0446195
0
ARC
8
right_labelLayer
10
4.3435649
20
6.595558
40
0.0817618
50
342.5653107
51
0.5952931
0
ARC
8
right_labelLayer
10
4.3586483
20
6.5913927
40
0.0661256
50
310.6095065
51
342.0927506
0
ARC
8
right_labelLayer
10
4.3501918
20
6.6012287
40
0.0790971
50
284.9315015
51
310.6222715
0
ARC
8
right_labelLayer
10
4.3396118
20
6.6383016
40
0.1176462
50
272.5329403
51
285.2579899
0
ARC
8
right_labelLayer
10
4.3368936
20
6.6753549
40
0.1547873
50
269.9678079
51
272.9319822
0
ARC
8
right_labelLayer
10
4.3365506
20
6.6351567
40
0.1145894
50
263.4828471
51
270.1280095
0
ARC
8
right_labelLayer
10
4.3346796
20
6.6174289
40
0.0967639
50
259.4971038
51
263.3921317
0
ARC
8
right_labelLayer
10
4.3462447
20
6.4659336
40
0.0634704
50
117.394592
51
128.4092904
0
ARC
8
right_labelLayer
10
4.3299053
20
6.4862056
40
0.0374348
50
128.0893976
51
147.1392932
0
ARC
8
right_labelLayer
10
4.3211002
20
6.4921148
40
0.026833
50
147.5366581
51
180.2593074
0
ARC
8
right_labelLayer
10
4.3127533
20
6.491765
40
0.0184871
50
179.292181
51
198.3554431
0
ARC
8
right_labelLayer
10
4.3092898
20
6.4908553
40
0.014915
50
199.2286167
51
239.5683496
0
ARC
8
right_labelLayer
10
4.3120794
20
6.494692
40
0.0196413
50
238.2205901
51
239.8588548
0
ARC
8
right_labelLayer
10
4.3144474
20
6.4995258
40
0.0250136
50
240.7277564
51
254.5023673
0
ARC
8
right_labelLayer
10
4.3212747
20
6.5230545
40
0.0495117
50
254.1642187
51
262.2135584
0
ARC
8
right_labelLayer
10
4.3266877
20
6.5608673
40
0.0877097
50
262.0566603
51
267.207488
0
ARC
8
right_labelLayer
10
4.3292941
20
6.6085834
40
0.1354964
50
267.0896991
51
270.0879113
0
ARC
8
right_labelLayer
10
4.3719613
20
6.3271066
40
0.1459826
50
81.5741469
51
90.306019
0
ARC
8
right_labelLayer
10
4.3799683
20
6.3793219
40
0.0931581
50
68.3677525
51
81.7398926
0
ARC
8
right_labelLayer
10
4.3904295
20
6.4060578
40
0.0644488
50
52.1877739
51
68.2505866
0
ARC
8
right_labelLayer
10
4.3977462
20
6.4159163
40
0.0521753
50
8.6203921
51
51.8982873
0
ARC
8
right_labelLayer
10
4.3720783
20
6.4104882
40
0.0783813
50
359.7439435
51
9.7311599
0
ARC
8
right_labelLayer
10
4.3732429
20
6.4091678
40
0.0772222
50
340.5272341
51
0.7197992
0
ARC
8
right_labelLayer
10
4.3845908
20
6.4063425
40
0.0655911
50
302.9905205
51
339.5495357
0
ARC
8
right_labelLayer
10
4.3718267
20
6.4227484
40
0.0863198
50
303.19964
51
304.1674468
0
ARC
8
right_labelLayer
10
4.3615804
20
6.4406961
40
0.1069557
50
286.2546101
51
302.5280416
0
ARC
8
right_labelLayer
10
4.3413825
20
6.5073235
40
0.1765747
50
276.4938919
51
286.4951027
0
ARC
8
right_labelLayer
10
4.328781
20
6.612678
40
0.2826792
50
269.7542028
51
276.6165767
0
ARC
8
right_labelLayer
10
4.3266271
20
6.5298218
40
0.1998229
50
262.5637335
51
270.2699021
0
ARC
8
right_labelLayer
10
4.3168383
20
6.4572668
40
0.1266115
50
251.2096481
51
262.7068043
0
ARC
8
right_labelLayer
10
4.3027372
20
6.4158798
40
0.0828883
50
235.9674598
51
251.2224598
0
ARC
8
right_labelLayer
10
4.2877833
20
6.3945449
40
0.0568402
50
208.9034899
51
236.4233204
0
ARC
8
right_labelLayer
10
4.2891563
20
6.3939702
40
0.0577762
50
182.2082673
51
207.7463862
0
ARC
8
right_labelLayer
10
4.3065975
20
6.395715
40
0.0752792
50
179.9783643
51
183.0237443
0
ARC
8
right_labelLayer
10
4.2858421
20
6.3966999
40
0.0545321
50
138.3914194
51
181.0049958
0
ARC
8
right_labelLayer
10
4.2916012
20
6.3915246
40
0.062275
50
113.8125133
51
138.3498091
0
ARC
8
right_labelLayer
10
4.3025255
20
6.3679329
40
0.08827
50
102.2874535
51
114.1171531
0
ARC
8
right_labelLayer
10
4.2990909
20
6.4878608
40
0.0370133
50
216.5856348
51
245.4974617
0
ARC
8
right_labelLayer
10
4.3041723
20
6.4921999
40
0.043682
50
215.4628929
51
217.1830144
0
ARC
8
right_labelLayer
10
4.295565
20
6.4859826
40
0.0330643
50
182.1767949
51
215.3412472
0
ARC
8
right_labelLayer
10
4.3032788
20
6.4868216
40
0.0408081
50
179.9781345
51
182.9425798
0
ARC
8
right_labelLayer
10
4.3032563
20
6.4871818
40
0.0407871
50
161.7239128
51
180.4842084
0
ARC
8
right_labelLayer
10
4.2987694
20
6.4884047
40
0.0361436
50
144.4957355
51
161.3341515
0
ARC
8
right_labelLayer
10
4.3107199
20
6.479499
40
0.0510455
50
132.7256015
51
144.1483644
0
ARC
8
right_labelLayer
10
4.3298762
20
6.4590449
40
0.0790688
50
125.2216352
51
132.866599
0
ARC
8
right_labelLayer
10
4.3491519
20
6.4322722
40
0.1120575
50
121.2347447
51
125.3780864
0
ARC
8
right_labelLayer
10
4.3149947
20
6.5858372
40
0.0625193
50
215.1633978
51
247.4755289
0
ARC
8
right_labelLayer
10
4.3267123
20
6.5952873
40
0.0775471
50
212.4716514
51
215.8854446
0
ARC
8
right_labelLayer
10
4.3235972
20
6.5930623
40
0.0737249
50
183.0159335
51
212.3125686
0
ARC
8
right_labelLayer
10
4.3397788
20
6.5948627
40
0.0899837
50
179.9740079
51
183.6186734
0
ARC
8
right_labelLayer
10
4.3528291
20
6.5957745
40
0.1030379
50
166.8197389
51
180.4843233
0
ARC
8
right_labelLayer
10
4.3186496
20
6.6044033
40
0.0677938
50
132.3290168
51
167.333639
0
ARC
8
right_labelLayer
10
4.3232217
20
6.5978299
40
0.0757396
50
106.2188455
51
131.5374653
0
ARC
8
right_labelLayer
10
4.3347929
20
6.5603605
40
0.1149516
50
93.6330485
51
106.5404353
0
ARC
8
right_labelLayer
10
4.3385699
20
6.5179739
40
0.1574961
50
89.9380279
51
94.0272262
0
ARC
8
right_labelLayer
10
4.3391816
20
6.5387696
40
0.136701
50
82.5851713
51
90.1849775
0
ARC
8
right_labelLayer
10
4.3433562
20
6.5710723
40
0.1041297
50
74.0098401
51
82.5692039
0
ARC
8
right_labelLayer
10
4.30151
20
6.3956864
40
0.0358199
50
179.221468
51
200.9354396
0
ARC
8
right_labelLayer
10
4.297248
20
6.3946988
40
0.0314923
50
202.0280653
51
236.1466227
0
ARC
8
right_labelLayer
10
4.3035637
20
6.4026893
40
0.0416539
50
235.0547334
51
238.5113194
0
ARC
8
right_labelLayer
10
4.311133
20
6.416183
40
0.0571174
50
239.1067426
51
254.4857832
0
ARC
8
right_labelLayer
10
4.3210808
20
6.4504806
40
0.0928269
50
254.2317607
51
263.494064
0
ARC
8
right_labelLayer
10
4.3273321
20
6.5034285
40
0.1461424
50
263.4110558
51
270.1460414
0
LINE
8
right_labelLayer
10
4.3277046
20
6.3572866
11
4.327998
21
6.3572864
0
ARC
8
right_labelLayer
10
4.3288509
20
6.5970665
40
0.2397816
50
269.7962095
51
275.3988864
0
ARC
8
right_labelLayer
10
4.337825
20
6.5049192
40
0.1471991
50
275.2960153
51
283.3518831
0
ARC
8
right_labelLayer
10
4.3524451
20
6.4447038
40
0.0852358
50
283.1372827
51
295.857692
0
ARC
8
right_labelLayer
10
4.3632658
20
6.421077
40
0.059258
50
296.4061099
51
301.800071
0
ARC
8
right_labelLayer
10
4.3675239
20
6.4152041
40
0.0520255
50
301.2227825
51
318.622964
0
ARC
8
right_labelLayer
10
4.377104
20
6.406354
40
0.0389878
50
319.0761742
51
1.1406987
0
ARC
8
right_labelLayer
10
4.3678387
20
6.4075133
40
0.0482468
50
359.5449026
51
10.9906393
0
ARC
8
right_labelLayer
10
4.3864688
20
6.4113023
40
0.0292365
50
10.6620667
51
30.9354932
0
ARC
8
right_labelLayer
10
4.392382
20
6.4145841
40
0.0224785
50
31.5086258
51
58.0787774
0
ARC
8
right_labelLayer
10
4.3868392
20
6.4046598
40
0.0338371
50
58.9979941
51
73.8565224
0
ARC
8
right_labelLayer
10
4.3756488
20
6.3680211
40
0.0721447
50
73.4102723
51
81.5915121
0
ARC
8
right_labelLayer
10
4.3661598
20
6.3066116
40
0.1342823
50
81.4178065
51
86.5754048
0
ARC
8
right_labelLayer
10
4.3603462
20
6.2141165
40
0.2269597
50
86.5051931
51
90.1391589
0
ARC
8
right_labelLayer
10
4.31653
20
6.3591011
40
0.0819759
50
89.6428079
51
100.0208911
0
ARC
8
right_labelLayer
10
4.3113783
20
6.3871254
40
0.053483
50
99.8102711
51
116.822811
0
ARC
8
right_labelLayer
10
4.3063603
20
6.3977082
40
0.0417755
50
117.2304002
51
130.5014127
0
ARC
8
right_labelLayer
10
4.3037821
20
6.4010228
40
0.0375811
50
130.7946018
51
169.0413476
0
ARC
8
right_labelLayer
10
4.3227641
20
6.3965536
40
0.0570719
50
168.2590141
51
180.3820225
0
ARC
8
right_labelLayer
10
4.3546427
20
6.5952305
40
0.0696154
50
179.5617634
51
191.6528943
0
ARC
8
right_labelLayer
10
4.3304377
20
6.5900005
40
0.0448535
50
191.3550318
51
213.3658753
0
ARC
8
right_labelLayer
10
4.3246313
20
6.5866504
40
0.0381637
50
213.9596537
51
227.796436
0
ARC
8
right_labelLayer
10
4.3296813
20
6.5927756
40
0.046095
50
228.2611424
51
254.7348751
0
ARC
8
right_labelLayer
10
4.3361449
20
6.614932
40
0.0691727
50
254.4018113
51
267.4339071
0
ARC
8
right_labelLayer
10
4.3378328
20
6.6376337
40
0.0919295
50
267.0164332
51
270.0299346
0
ARC
8
right_labelLayer
10
4.3389302
20
6.6233988
40
0.0777016
50
269.2261879
51
284.3767211
0
ARC
8
right_labelLayer
10
4.3495207
20
6.5864981
40
0.0393421
50
282.7796536
51
346.4828804
0
ARC
8
right_labelLayer
10
4.3178592
20
6.5954668
40
0.072235
50
345.4358864
51
0.7461045
0
ARC
8
right_labelLayer
10
4.3134162
20
6.5975047
40
0.0766796
50
359.1800784
51
15.0440208
0
ARC
8
right_labelLayer
10
4.3481576
20
6.6076406
40
0.0405054
50
13.9533916
51
77.667661
0
ARC
8
right_labelLayer
10
4.3381878
20
6.5719104
40
0.0775692
50
76.110097
51
90.7027851
0
ARC
8
right_labelLayer
10
4.3366964
20
6.5746392
40
0.0748366
50
89.5866225
51
101.3335638
0
ARC
8
right_labelLayer
10
4.331348
20
6.6001487
40
0.0487741
50
101.0622116
51
121.9737757
0
ARC
8
right_labelLayer
10
4.3275882
20
6.6069124
40
0.0410474
50
122.521213
51
134.9974814
0
ARC
8
right_labelLayer
10
4.329138
20
6.6059827
40
0.0428031
50
135.584471
51
163.0011903
0
ARC
8
right_labelLayer
10
4.3517464
20
6.5985733
40
0.0665916
50
162.5915531
51
175.7332365
0
ARC
8
right_labelLayer
10
4.3788867
20
6.595902
40
0.0938576
50
175.3397146
51
180.0848838
0
LINE
8
right_labelLayer
10
4.6986035
20
6.4357043
11
4.6629395
21
6.4357043
0
LINE
8
right_labelLayer
10
4.6629395
20
6.4357043
11
4.6629395
21
6.5880285
0
LINE
8
right_labelLayer
10
4.5374707
20
6.5588098
11
4.5374707
21
6.4357043
0
LINE
8
right_labelLayer
10
4.5374707
20
6.4357043
11
4.5018066
21
6.4357043
0
LINE
8
right_labelLayer
10
4.5018066
20
6.4357043
11
4.5018066
21
6.7700012
0
LINE
8
right_labelLayer
10
4.5018066
20
6.7700012
11
4.5374707
21
6.7700012
0
LINE
8
right_labelLayer
10
4.5374707
20
6.7700012
11
4.5374707
21
6.6688098
0
LINE
8
right_labelLayer
10
4.535752
20
6.6385168
11
4.5379004
21
6.6385168
0
LINE
8
right_labelLayer
10
4.6986035
20
6.5893176
11
4.6986035
21
6.4357043
0
ARC
8
right_labelLayer
10
4.5621085
20
6.5886055
40
0.1008326
50
359.672139
51
8.6867238
0
ARC
8
right_labelLayer
10
4.5994873
20
6.5945305
40
0.062988
50
8.4942125
51
22.6579184
0
ARC
8
right_labelLayer
10
4.6184795
20
6.6024234
40
0.0424213
50
22.7019494
51
42.3434165
0
ARC
8
right_labelLayer
10
4.6206102
20
6.6033823
40
0.0402072
50
43.3787393
51
71.5390887
0
ARC
8
right_labelLayer
10
4.6126316
20
6.5810885
40
0.0638822
50
71.0829186
51
84.3701272
0
ARC
8
right_labelLayer
10
4.6090463
20
6.5505954
40
0.0945819
50
84.0208993
51
90.1499386
0
ARC
8
right_labelLayer
10
4.6080312
20
6.5372461
40
0.1079336
50
89.5925067
51
100.359178
0
ARC
8
right_labelLayer
10
4.6003892
20
6.5774118
40
0.0670491
50
100.1071711
51
118.0842005
0
ARC
8
right_labelLayer
10
4.5926134
20
6.5926687
40
0.0499291
50
118.4539956
51
139.6706884
0
ARC
8
right_labelLayer
10
4.6004236
20
6.5873308
40
0.0593456
50
140.6219424
51
160.5042303
0
ARC
8
right_labelLayer
10
4.6415412
20
6.5721086
40
0.103188
50
160.1561149
51
171.5316915
0
ARC
8
right_labelLayer
10
4.7081037
20
6.5615607
40
0.1705793
50
171.3198433
51
178.3401826
0
ARC
8
right_labelLayer
10
4.7674146
20
6.558902
40
0.229944
50
178.1060378
51
180.0229663
0
ARC
8
right_labelLayer
10
4.2166538
20
6.6684226
40
0.3208172
50
357.8682258
51
0.069156
0
ARC
8
right_labelLayer
10
4.3256549
20
6.664269
40
0.2117368
50
354.9824582
51
357.8942278
0
ARC
8
right_labelLayer
10
4.3977593
20
6.6579841
40
0.1393591
50
351.9700037
51
354.9637499
0
ARC
8
right_labelLayer
10
4.5983088
20
6.6007296
40
0.0712534
50
119.8314863
51
147.9727987
0
ARC
8
right_labelLayer
10
4.6068975
20
6.587549
40
0.0869645
50
116.6643412
51
120.4204941
0
ARC
8
right_labelLayer
10
4.608549
20
6.5832427
40
0.0915551
50
96.6656063
51
116.3785554
0
ARC
8
right_labelLayer
10
4.6120196
20
6.5592989
40
0.1157416
50
89.8927335
51
96.9962474
0
ARC
8
right_labelLayer
10
4.6131296
20
6.5303528
40
0.1446902
50
80.6860422
51
90.3537199
0
ARC
8
right_labelLayer
10
4.6221398
20
6.5833442
40
0.0909397
50
65.6020355
51
80.8845492
0
ARC
8
right_labelLayer
10
4.632957
20
6.6077067
40
0.064285
50
46.74044
51
65.4128171
0
ARC
8
right_labelLayer
10
4.6336938
20
6.6100308
40
0.0620964
50
19.2200235
51
45.7659445
0
ARC
8
right_labelLayer
10
4.5978822
20
6.5967556
40
0.100285
50
6.4737169
51
19.6463985
0
ARC
8
right_labelLayer
10
4.5443687
20
6.5898691
40
0.1542359
50
359.7951374
51
6.7742696
0
LINE
8
right_labelLayer
10
4.8801465
20
6.4651379
11
4.8801465
21
6.4378528
0
LINE
8
right_labelLayer
10
4.7744434
20
6.5033801
11
4.7744434
21
6.6434582
0
LINE
8
right_labelLayer
10
4.7744434
20
6.6434582
11
4.7407129
21
6.6434582
0
LINE
8
right_labelLayer
10
4.7407129
20
6.6434582
11
4.7407129
21
6.6606457
0
LINE
8
right_labelLayer
10
4.7407129
20
6.6606457
11
4.7744434
21
6.6754699
0
LINE
8
right_labelLayer
10
4.7744434
20
6.6754699
11
4.7894824
21
6.7257434
0
LINE
8
right_labelLayer
10
4.7894824
20
6.7257434
11
4.8101074
21
6.7257434
0
LINE
8
right_labelLayer
10
4.8101074
20
6.7257434
11
4.8101074
21
6.6711731
0
LINE
8
right_labelLayer
10
4.8101074
20
6.6711731
11
4.8784277
21
6.6711731
0
LINE
8
right_labelLayer
10
4.8784277
20
6.6711731
11
4.8784277
21
6.6434582
0
LINE
8
right_labelLayer
10
4.8784277
20
6.6434582
11
4.8101074
21
6.6434582
0
LINE
8
right_labelLayer
10
4.8101074
20
6.6434582
11
4.8101074
21
6.504884
0
ARC
8
right_labelLayer
10
4.8481658
20
6.5779458
40
0.117105
50
269.8797039
51
278.3036675
0
ARC
8
right_labelLayer
10
4.8496183
20
6.566588
40
0.1056567
50
278.4137775
51
279.0192237
0
ARC
8
right_labelLayer
10
4.8361063
20
6.6530176
40
0.1931361
50
278.9586264
51
280.5084012
0
ARC
8
right_labelLayer
10
4.8486681
20
6.5855879
40
0.1245463
50
280.4838605
51
282.6263065
0
ARC
8
right_labelLayer
10
4.8596763
20
6.5366838
40
0.0744184
50
282.5862507
51
285.5832957
0
ARC
8
right_labelLayer
10
4.8661399
20
6.5131648
40
0.0500278
50
285.6888523
51
286.2588354
0
ARC
8
right_labelLayer
10
4.8651551
20
6.4695583
40
0.0350711
50
287.9885573
51
295.3062791
0
ARC
8
right_labelLayer
10
4.8567004
20
6.4951289
40
0.062003
50
283.3064202
51
288.122086
0
ARC
8
right_labelLayer
10
4.8477358
20
6.532523
40
0.1004564
50
280.0094417
51
283.373357
0
ARC
8
right_labelLayer
10
4.8419739
20
6.5636916
40
0.1321522
50
279.1841179
51
280.120755
0
ARC
8
right_labelLayer
10
4.8381226
20
6.5856219
40
0.1544163
50
275.5242466
51
279.2960868
0
ARC
8
right_labelLayer
10
4.8422414
20
6.5425183
40
0.1111163
50
270.8924045
51
275.549874
0
ARC
8
right_labelLayer
10
4.8427586
20
6.5234218
40
0.0920143
50
270.0031417
51
270.7555979
0
ARC
8
right_labelLayer
10
4.8413245
20
6.5245455
40
0.0931492
50
253.7847536
51
270.8852352
0
ARC
8
right_labelLayer
10
4.8302889
20
6.4869097
40
0.0539289
50
190.3817592
51
253.877166
0
ARC
8
right_labelLayer
10
4.8865331
20
6.5021177
40
0.1120968
50
179.3547232
51
192.8479419
0
ARC
8
right_labelLayer
10
4.8819228
20
6.5044348
40
0.0718168
50
179.6416547
51
189.7504209
0
ARC
8
right_labelLayer
10
4.8565707
20
6.4999134
40
0.0460654
50
189.5482238
51
205.7871355
0
ARC
8
right_labelLayer
10
4.8461505
20
6.4951085
40
0.0345932
50
206.1293704
51
221.4083952
0
ARC
8
right_labelLayer
10
4.8449821
20
6.4942219
40
0.0331307
50
221.5948493
51
262.3508905
0
ARC
8
right_labelLayer
10
4.8477607
20
6.5085141
40
0.0476732
50
261.3275059
51
270.1913714
0
LINE
8
bottom_outsideCutPath
10
5.765
20
4.535
11
5.765
21
4.0675
0
LINE
8
bottom_outsideCutPath
10
5.765
20
4.0675
11
5.65
21
4.0675
0
LINE
8
bottom_outsideCutPath
10
5.65
20
4.0675
11
5.65
21
3.0325
0
LINE
8
bottom_outsideCutPath
10
5.65
20
3.0325
11
5.765
21
3.0325
0
LINE
8
bottom_outsideCutPath
10
5.765
20
3.0325
11
5.765
21
2.565
0
LINE
8
bottom_outsideCutPath
10
5.765
20
2.565
11
6.7325
21
2.565
0
LINE
8
bottom_outsideCutPath
10
6.7325
20
2.565
11
6.7325
21
2.45
0
LINE
8
bottom_outsideCutPath
10
6.7325
20
2.45
11
7.7675
21
2.45
0
LINE
8
bottom_outsideCutPath
10
7.7675
20
2.45
11
7.7675
21
2.565
0
LINE
8
bottom_outsideCutPath
10
7.7675
20
2.565
11
8.735
21
2.565
0
LINE
8
bottom_outsideCutPath
10
8.735
20
2.565
11
8.735
21
3.0325
0
LINE
8
bottom_outsideCutPath
10
8.735
20
3.0325
11
8.85
21
3.0325
0
LINE
8
bottom_outsideCutPath
10
8.85
20
3.0325
11
8.85
21
4.0675
0
LINE
8
bottom_outsideCutPath
10
8.85
20
4.0675
11
8.735
21
4.0675
0
LINE
8
bottom_outsideCutPath
10
8.735
20
4.0675
11
8.735
21
4.535
0
LINE
8
bottom_outsideCutPath
10
8.735
20
4.535
11
7.7675
21
4.535
0
LINE
8
bottom_outsideCutPath
10
7.7675
20
4.535
11
7.7675
21
4.65
0
LINE
8
bottom_outsideCutPath
10
7.7675
20
4.65
11
6.7325
21
4.65
0
LINE
8
bottom_outsideCutPath
10
6.7325
20
4.65
11
6.7325
21
4.535
0
LINE
8
bottom_outsideCutPath
10
6.7325
20
4.535
11
5.765
21
4.535
0
LINE
8
bottom_labelLayer
10
6.5618544
20
3.4152985
11
6.5592763
21
3.4152985
0
LINE
8
bottom_labelLayer
10
6.5592763
20
3.4152985
11
6.5517567
21
3.3850056
0
LINE
8
bottom_labelLayer
10
6.5517567
20
3.3850056
11
6.5261903
21
3.3850056
0
LINE
8
bottom_labelLayer
10
6.5261903
20
3.3850056
11
6.5261903
21
3.7193024
0
LINE
8
bottom_labelLayer
10
6.5261903
20
3.7193024
11
6.5618544
21
3.7193024
0
LINE
8
bottom_labelLayer
10
6.5618544
20
3.7193024
11
6.5618544
21
3.6380915
0
LINE
8
bottom_labelLayer
10
6.5601356
20
3.5891071
11
6.5618544
21
3.5891071
0
ARC
8
bottom_labelLayer
10
6.6368305
20
3.5153478
40
0.108999
50
74.2389333
51
90.5623913
0
ARC
8
bottom_labelLayer
10
6.6440389
20
3.5417876
40
0.0815957
50
38.56276
51
74.0673238
0
ARC
8
bottom_labelLayer
10
6.6254933
20
3.5273658
40
0.1050875
50
16.4704468
51
38.4078776
0
ARC
8
bottom_labelLayer
10
6.5720556
20
3.5106088
40
0.1610861
50
5.1336676
51
16.7972215
0
ARC
8
bottom_labelLayer
10
6.5045695
20
3.5034406
40
0.2289456
50
359.8784167
51
5.4091621
0
ARC
8
bottom_labelLayer
10
6.5244145
20
3.50172
40
0.2091037
50
350.6564506
51
0.338344
0
ARC
8
bottom_labelLayer
10
6.5973107
20
3.4893214
40
0.1351622
50
335.8306045
51
350.8256344
0
ARC
8
bottom_labelLayer
10
6.6293746
20
3.4754823
40
0.100244
50
321.3163506
51
335.5435899
0
ARC
8
bottom_labelLayer
10
6.6416352
20
3.4654924
40
0.0844294
50
274.0640377
51
321.4079861
0
ARC
8
bottom_labelLayer
10
6.635926
20
3.5016213
40
0.1209128
50
269.9216641
51
275.5494648
0
ARC
8
bottom_labelLayer
10
6.6351599
20
3.4888883
40
0.1081813
50
255.7757784
51
270.3181755
0
ARC
8
bottom_labelLayer
10
6.6320746
20
3.4751745
40
0.0941306
50
245.9803426
51
255.5450881
0
ARC
8
bottom_labelLayer
10
6.6260924
20
3.4612632
40
0.0789892
50
215.5851391
51
245.836428
0
ARC
8
bottom_labelLayer
10
5.818184
20
3.6374629
40
0.7436706
50
358.1125771
51
0.0484265
0
ARC
8
bottom_labelLayer
10
6.0251854
20
3.630515
40
0.5365527
50
355.7242568
51
358.1260756
0
ARC
8
bottom_labelLayer
10
6.1526981
20
3.6214361
40
0.4087182
50
355.4632589
51
355.6607233
0
ARC
8
bottom_labelLayer
10
6.6283667
20
3.5427262
40
0.0810868
50
95.1837319
51
145.1108154
0
ARC
8
bottom_labelLayer
10
6.6354919
20
3.5025617
40
0.1217801
50
89.8735403
51
96.8152211
0
ARC
8
bottom_labelLayer
10
6.6298577
20
3.4942695
40
0.1002115
50
89.5730688
51
100.7331895
0
ARC
8
bottom_labelLayer
10
6.6224395
20
3.5317432
40
0.0620127
50
100.4472301
51
119.6696753
0
ARC
8
bottom_labelLayer
10
6.6155582
20
3.5446089
40
0.0474292
50
120.1400865
51
142.4253781
0
ARC
8
bottom_labelLayer
10
6.6269427
20
3.5370778
40
0.0610523
50
143.3388927
51
161.2561211
0
ARC
8
bottom_labelLayer
10
6.6745305
20
3.5201821
40
0.1115479
50
160.8925668
51
171.2340421
0
ARC
8
bottom_labelLayer
10
6.7539782
20
3.5073622
40
0.1920222
50
171.0662304
51
177.845714
0
ARC
8
bottom_labelLayer
10
6.8368696
20
3.5031541
40
0.2750153
50
177.6187909
51
180.0415326
0
ARC
8
bottom_labelLayer
10
6.7976617
20
3.5020339
40
0.2358091
50
179.7762522
51
185.7074794
0
ARC
8
bottom_labelLayer
10
6.7047131
20
3.4924582
40
0.1423692
50
185.5929595
51
194.2041244
0
ARC
8
bottom_labelLayer
10
6.6451325
20
3.4769981
40
0.0808174
50
193.9434441
51
208.0224327
0
ARC
8
bottom_labelLayer
10
6.6210377
20
3.4647397
40
0.0537906
50
208.5538041
51
217.5605883
0
ARC
8
bottom_labelLayer
10
6.6190737
20
3.463922
40
0.0517382
50
218.1686195
51
253.8047977
0
ARC
8
bottom_labelLayer
10
6.6286707
20
3.4935099
40
0.0828342
50
253.1381712
51
266.8482394
0
ARC
8
bottom_labelLayer
10
6.6313586
20
3.5251821
40
0.1146101
50
266.3770608
51
270.0525763
0
ARC
8
bottom_labelLayer
10
6.6322252
20
3.4816594
40
0.0710916
50
269.3863323
51
285.8635371
0
ARC
8
bottom_labelLayer
10
6.6375063
20
3.4625738
40
0.0512894
50
286.0165431
51
326.8500384
0
ARC
8
bottom_labelLayer
10
6.6120123
20
3.4794628
40
0.0818699
50
326.7106117
51
343.6661543
0
ARC
8
bottom_labelLayer
10
6.5642954
20
3.4940443
40
0.1317631
50
343.4168448
51
353.637009
0
ARC
8
bottom_labelLayer
10
6.4922207
20
3.5025963
40
0.2043421
50
353.4936014
51
0.2210087
0
ARC
8
bottom_labelLayer
10
6.48589
20
3.504239
40
0.2106732
50
359.7676011
51
6.310077
0
ARC
8
bottom_labelLayer
10
6.565218
20
3.5133446
40
0.1308254
50
6.1648445
51
16.0390543
0
ARC
8
bottom_labelLayer
10
6.6163521
20
3.5284126
40
0.0775193
50
15.7777953
51
32.0146636
0
ARC
8
bottom_labelLayer
10
6.6323429
20
3.5375759
40
0.0591068
50
32.7006364
51
35.5241489
0
ARC
8
bottom_labelLayer
10
6.6381285
20
3.5416878
40
0.0520088
50
35.5408493
51
79.8011929
0
ARC
8
bottom_labelLayer
10
6.6311452
20
3.5120078
40
0.0824722
50
78.6772274
51
90.3756961
0
ARC
8
bottom_labelLayer
10
6.814846
20
3.5017138
40
0.1842196
50
349.1758991
51
0.3859561
0
ARC
8
bottom_labelLayer
10
6.876867
20
3.4893492
40
0.1209813
50
330.2507942
51
349.4114751
0
ARC
8
bottom_labelLayer
10
6.8959618
20
3.4794233
40
0.0994815
50
318.1435579
51
329.7570772
0
ARC
8
bottom_labelLayer
10
6.899401
20
3.4766664
40
0.0950806
50
278.895853
51
317.9980846
0
ARC
8
bottom_labelLayer
10
6.8905243
20
3.5192015
40
0.138494
50
269.7503344
51
279.8028847
0
ARC
8
bottom_labelLayer
10
6.8890855
20
3.4952347
40
0.1145291
50
253.5435888
51
270.4178662
0
ARC
8
bottom_labelLayer
10
6.8852762
20
3.4804939
40
0.0993145
50
238.8121355
51
253.2420993
0
ARC
8
bottom_labelLayer
10
6.8840429
20
3.4780123
40
0.0965532
50
207.7949654
51
238.6756463
0
ARC
8
bottom_labelLayer
10
6.9017203
20
3.4888376
40
0.1172465
50
205.6569838
51
208.4464598
0
ARC
8
bottom_labelLayer
10
6.9152948
20
3.4944907
40
0.1319325
50
188.9104318
51
205.3174736
0
ARC
8
bottom_labelLayer
10
6.9611295
20
3.5022525
40
0.178417
50
179.7744623
51
189.0930606
0
ARC
8
bottom_labelLayer
10
6.967873
20
3.50421
40
0.1851635
50
169.2438567
51
180.3884032
0
ARC
8
bottom_labelLayer
10
6.9049979
20
3.5166405
40
0.1210741
50
150.710982
51
169.469962
0
ARC
8
bottom_labelLayer
10
6.8849258
20
3.5269478
40
0.0985289
50
138.1755002
51
150.2283724
0
ARC
8
bottom_labelLayer
10
6.8815876
20
3.5295102
40
0.0943332
50
99.1759851
51
137.9831897
0
ARC
8
bottom_labelLayer
10
6.8907794
20
3.4862536
40
0.1385192
50
89.7330653
51
100.0761493
0
ARC
8
bottom_labelLayer
10
6.8926152
20
3.5049377
40
0.1198394
50
73.5221036
51
90.5691802
0
ARC
8
bottom_labelLayer
10
6.8996434
20
3.5304715
40
0.0933621
50
41.1444441
51
73.2134209
0
ARC
8
bottom_labelLayer
10
6.8862286
20
3.518941
40
0.111051
50
13.5013242
51
41.0705243
0
ARC
8
bottom_labelLayer
10
6.834401
20
3.5053776
40
0.1646165
50
1.1275019
51
13.8801784
0
ARC
8
bottom_labelLayer
10
6.7892119
20
3.502977
40
0.2098495
50
359.9939246
51
1.5400229
0
ARC
8
bottom_labelLayer
10
7.0002475
20
3.5020266
40
0.180583
50
179.7055169
51
187.9165034
0
ARC
8
bottom_labelLayer
10
6.9340238
20
3.4925115
40
0.1136803
50
187.7635638
51
200.0977338
0
ARC
8
bottom_labelLayer
10
6.8975363
20
3.4791422
40
0.0748205
50
200.0844569
51
216.9130832
0
ARC
8
bottom_labelLayer
10
6.8842114
20
3.4696277
40
0.0584535
50
217.3009345
51
261.7097673
0
ARC
8
bottom_labelLayer
10
6.8903962
20
3.4991404
40
0.0885691
50
260.5033535
51
270.2484122
0
ARC
8
bottom_labelLayer
10
6.8915788
20
3.4934011
40
0.082833
50
269.447609
51
284.7260372
0
ARC
8
bottom_labelLayer
10
6.8981364
20
3.4690849
40
0.0576488
50
284.5658866
51
322.6336771
0
ARC
8
bottom_labelLayer
10
6.8828026
20
3.4801629
40
0.0765607
50
323.0091564
51
342.6390997
0
ARC
8
bottom_labelLayer
10
6.8389625
20
3.4944927
40
0.1226809
50
342.3609848
51
353.7544625
0
ARC
8
bottom_labelLayer
10
6.7742804
20
3.5022927
40
0.187829
50
353.5357407
51
0.2019633
0
ARC
8
bottom_labelLayer
10
6.7841487
20
3.5038617
40
0.1779619
50
359.7080102
51
7.8970995
0
ARC
8
bottom_labelLayer
10
6.8493322
20
3.5132052
40
0.1121133
50
7.7442847
51
20.0693381
0
ARC
8
bottom_labelLayer
10
6.8856473
20
3.5265319
40
0.0734304
50
20.0258843
51
37.4352896
0
ARC
8
bottom_labelLayer
10
6.8976962
20
3.5350817
40
0.0586684
50
37.9579572
51
80.4007991
0
ARC
8
bottom_labelLayer
10
6.8908479
20
3.5045217
40
0.0899579
50
79.3458081
51
90.3168378
0
ARC
8
bottom_labelLayer
10
6.8895818
20
3.5095962
40
0.0848855
50
89.4811722
51
103.8795246
0
ARC
8
bottom_labelLayer
10
6.8824485
20
3.5367642
40
0.0568009
50
103.4679923
51
142.3121952
0
ARC
8
bottom_labelLayer
10
6.8963136
20
3.5270127
40
0.0737386
50
142.9024596
51
162.3749846
0
ARC
8
bottom_labelLayer
10
6.9400047
20
3.5124527
40
0.1197891
50
162.0652659
51
173.1671805
0
ARC
8
bottom_labelLayer
10
7.0081187
20
3.5037666
40
0.1884534
50
173.0088864
51
180.2468285
0
LINE
8
bottom_labelLayer
10
7.1698622
20
3.4144392
11
7.1698622
21
3.387154
0
LINE
8
bottom_labelLayer
10
7.0641591
20
3.4526813
11
7.0641591
21
3.5927595
0
LINE
8
bottom_labelLayer
10
7.0641591
20
3.5927595
11
7.0304286
21
3.5927595
0
LINE
8
bottom_labelLayer
10
7.0304286
20
3.5927595
11
7.0304286
21
3.609947
0
LINE
8
bottom_labelLayer
10
7.0304286
20
3.609947
11
7.0641591
21
3.6247712
0
LINE
8
bottom_labelLayer
10
7.0641591
20
3.6247712
11
7.0791981
21
3.6750446
0
LINE
8
bottom_labelLayer
10
7.0791981
20
3.6750446
11
7.0998231
21
3.6750446
0
LINE
8
bottom_labelLayer
10
7.0998231
20
3.6750446
11
7.0998231
21
3.6204743
0
LINE
8
bottom_labelLayer
10
7.0998231
20
3.6204743
11
7.1681435
21
3.6204743
0
LINE
8
bottom_labelLayer
10
7.1681435
20
3.6204743
11
7.1681435
21
3.5927595
0
LINE
8
bottom_labelLayer
10
7.1681435
20
3.5927595
11
7.0998231
21
3.5927595
0
LINE
8
bottom_labelLayer
10
7.0998231
20
3.5927595
11
7.0998231
21
3.4541852
0
ARC
8
bottom_labelLayer
10
7.1378815
20
3.527247
40
0.117105
50
269.8797039
51
278.3036675
0
ARC
8
bottom_labelLayer
10
7.139334
20
3.5158892
40
0.1056567
50
278.4137775
51
279.0192237
0
ARC
8
bottom_labelLayer
10
7.125822
20
3.6023188
40
0.1931361
50
278.9586264
51
280.5084012
0
ARC
8
bottom_labelLayer
10
7.1383838
20
3.5348892
40
0.1245463
50
280.4838605
51
282.6263065
0
ARC
8
bottom_labelLayer
10
7.1493921
20
3.485985
40
0.0744184
50
282.5862507
51
285.5832957
0
ARC
8
bottom_labelLayer
10
7.1558556
20
3.4624661
40
0.0500278
50
285.6888523
51
286.2588354
0
ARC
8
bottom_labelLayer
10
7.1548708
20
3.4188596
40
0.0350711
50
287.9885573
51
295.3062791
0
ARC
8
bottom_labelLayer
10
7.1464161
20
3.4444302
40
0.062003
50
283.3064202
51
288.122086
0
ARC
8
bottom_labelLayer
10
7.1374515
20
3.4818242
40
0.1004564
50
280.0094417
51
283.373357
0
ARC
8
bottom_labelLayer
10
7.1316897
20
3.5129929
40
0.1321522
50
279.1841179
51
280.120755
0
ARC
8
bottom_labelLayer
10
7.1278383
20
3.5349232
40
0.1544163
50
275.5242466
51
279.2960868
0
ARC
8
bottom_labelLayer
10
7.1319572
20
3.4918195
40
0.1111163
50
270.8924045
51
275.549874
0
ARC
8
bottom_labelLayer
10
7.1324744
20
3.472723
40
0.0920143
50
270.0031417
51
270.7555979
0
ARC
8
bottom_labelLayer
10
7.1310403
20
3.4738467
40
0.0931492
50
253.7847536
51
270.8852352
0
ARC
8
bottom_labelLayer
10
7.1200046
20
3.4362109
40
0.0539289
50
190.3817592
51
253.877166
0
ARC
8
bottom_labelLayer
10
7.1762488
20
3.4514189
40
0.1120968
50
179.3547232
51
192.8479419
0
ARC
8
bottom_labelLayer
10
7.1716385
20
3.4537361
40
0.0718168
50
179.6416547
51
189.7504209
0
ARC
8
bottom_labelLayer
10
7.1462864
20
3.4492147
40
0.0460654
50
189.5482238
51
205.7871355
0
ARC
8
bottom_labelLayer
10
7.1358662
20
3.4444097
40
0.0345932
50
206.1293704
51
221.4083952
0
ARC
8
bottom_labelLayer
10
7.1346978
20
3.4435231
40
0.0331307
50
221.5948493
51
262.3508905
0
ARC
8
bottom_labelLayer
10
7.1374764
20
3.4578153
40
0.0476732
50
261.3275059
51
270.1913714
0
LINE
8
bottom_labelLayer
10
7.3251942
20
3.4144392
11
7.3251942
21
3.387154
0
LINE
8
bottom_labelLayer
10
7.2194911
20
3.4526813
11
7.2194911
21
3.5927595
0
LINE
8
bottom_labelLayer
10
7.2194911
20
3.5927595
11
7.1857606
21
3.5927595
0
LINE
8
bottom_labelLayer
10
7.1857606
20
3.5927595
11
7.1857606
21
3.609947
0
LINE
8
bottom_labelLayer
10
7.1857606
20
3.609947
11
7.2194911
21
3.6247712
0
LINE
8
bottom_labelLayer
10
7.2194911
20
3.6247712
11
7.2345302
21
3.6750446
0
LINE
8
bottom_labelLayer
10
7.2345302
20
3.6750446
11
7.2551552
21
3.6750446
0
LINE
8
bottom_labelLayer
10
7.2551552
20
3.6750446
11
7.2551552
21
3.6204743
0
LINE
8
bottom_labelLayer
10
7.2551552
20
3.6204743
11
7.3234755
21
3.6204743
0
LINE
8
bottom_labelLayer
10
7.3234755
20
3.6204743
11
7.3234755
21
3.5927595
0
LINE
8
bottom_labelLayer
10
7.3234755
20
3.5927595
11
7.2551552
21
3.5927595
0
LINE
8
bottom_labelLayer
10
7.2551552
20
3.5927595
11
7.2551552
21
3.4541852
0
ARC
8
bottom_labelLayer
10
7.2932135
20
3.527247
40
0.117105
50
269.8797039
51
278.3036675
0
ARC
8
bottom_labelLayer
10
7.294666
20
3.5158892
40
0.1056567
50
278.4137775
51
279.0192237
0
ARC
8
bottom_labelLayer
10
7.281154
20
3.6023188
40
0.1931361
50
278.9586264
51
280.5084012
0
ARC
8
bottom_labelLayer
10
7.2937158
20
3.5348892
40
0.1245463
50
280.4838605
51
282.6263065
0
ARC
8
bottom_labelLayer
10
7.3047241
20
3.485985
40
0.0744184
50
282.5862507
51
285.5832957
0
ARC
8
bottom_labelLayer
10
7.3111876
20
3.4624661
40
0.0500278
50
285.6888523
51
286.2588354
0
ARC
8
bottom_labelLayer
10
7.3102028
20
3.4188596
40
0.0350711
50
287.9885573
51
295.3062791
0
ARC
8
bottom_labelLayer
10
7.3017482
20
3.4444302
40
0.062003
50
283.3064202
51
288.122086
0
ARC
8
bottom_labelLayer
10
7.2927836
20
3.4818242
40
0.1004564
50
280.0094417
51
283.373357
0
ARC
8
bottom_labelLayer
10
7.2870217
20
3.5129929
40
0.1321522
50
279.1841179
51
280.120755
0
ARC
8
bottom_labelLayer
10
7.2831703
20
3.5349232
40
0.1544163
50
275.5242466
51
279.2960868
0
ARC
8
bottom_labelLayer
10
7.2872892
20
3.4918195
40
0.1111163
50
270.8924045
51
275.549874
0
ARC
8
bottom_labelLayer
10
7.2878064
20
3.472723
40
0.0920143
50
270.0031417
51
270.7555979
0
ARC
8
bottom_labelLayer
10
7.2863723
20
3.4738467
40
0.0931492
50
253.7847536
51
270.8852352
0
ARC
8
bottom_labelLayer
10
7.2753366
20
3.4362109
40
0.0539289
50
190.3817592
51
253.877166
0
ARC
8
bottom_labelLayer
10
7.3315809
20
3.4514189
40
0.1120968
50
179.3547232
51
192.8479419
0
ARC
8
bottom_labelLayer
10
7.3269706
20
3.4537361
40
0.0718168
50
179.6416547
51
189.7504209
0
ARC
8
bottom_labelLayer
10
7.3016184
20
3.4492147
40
0.0460654
50
189.5482238
51
205.7871355
0
ARC
8
bottom_labelLayer
10
7.2911982
20
3.4444097
40
0.0345932
50
206.1293704
51
221.4083952
0
ARC
8
bottom_labelLayer
10
7.2900299
20
3.4435231
40
0.0331307
50
221.5948493
51
262.3508905
0
ARC
8
bottom_labelLayer
10
7.2928084
20
3.4578153
40
0.0476732
50
261.3275059
51
270.1913714
0
ARC
8
bottom_labelLayer
10
7.3912717
20
3.5017138
40
0.1842196
50
349.1758991
51
0.3859561
0
ARC
8
bottom_labelLayer
10
7.4532927
20
3.4893492
40
0.1209813
50
330.2507942
51
349.4114751
0
ARC
8
bottom_labelLayer
10
7.4723876
20
3.4794233
40
0.0994815
50
318.1435579
51
329.7570772
0
ARC
8
bottom_labelLayer
10
7.4758268
20
3.4766664
40
0.0950806
50
278.895853
51
317.9980846
0
ARC
8
bottom_labelLayer
10
7.4669501
20
3.5192015
40
0.138494
50
269.7503344
51
279.8028847
0
ARC
8
bottom_labelLayer
10
7.4655113
20
3.4952347
40
0.1145291
50
253.5435888
51
270.4178662
0
ARC
8
bottom_labelLayer
10
7.461702
20
3.4804939
40
0.0993145
50
238.8121355
51
253.2420993
0
ARC
8
bottom_labelLayer
10
7.4604687
20
3.4780123
40
0.0965532
50
207.7949654
51
238.6756463
0
ARC
8
bottom_labelLayer
10
7.4781461
20
3.4888376
40
0.1172465
50
205.6569838
51
208.4464598
0
ARC
8
bottom_labelLayer
10
7.4917206
20
3.4944907
40
0.1319325
50
188.9104318
51
205.3174736
0
ARC
8
bottom_labelLayer
10
7.5375552
20
3.5022525
40
0.178417
50
179.7744623
51
189.0930606
0
ARC
8
bottom_labelLayer
10
7.5442988
20
3.50421
40
0.1851635
50
169.2438567
51
180.3884032
0
ARC
8
bottom_labelLayer
10
7.4814237
20
3.5166405
40
0.1210741
50
150.710982
51
169.469962
0
ARC
8
bottom_labelLayer
10
7.4613516
20
3.5269478
40
0.0985289
50
138.1755002
51
150.2283724
0
ARC
8
bottom_labelLayer
10
7.4580133
20
3.5295102
40
0.0943332
50
99.1759851
51
137.9831897
0
ARC
8
bottom_labelLayer
10
7.4672051
20
3.4862536
40
0.1385192
50
89.7330653
51
100.0761493
0
ARC
8
bottom_labelLayer
10
7.469041
20
3.5049377
40
0.1198394
50
73.5221036
51
90.5691802
0
ARC
8
bottom_labelLayer
10
7.4760692
20
3.5304715
40
0.0933621
50
41.1444441
51
73.2134209
0
ARC
8
bottom_labelLayer
10
7.4626543
20
3.518941
40
0.111051
50
13.5013242
51
41.0705243
0
ARC
8
bottom_labelLayer
10
7.4108267
20
3.5053776
40
0.1646165
50
1.1275019
51
13.8801784
0
ARC
8
bottom_labelLayer
10
7.3656377
20
3.502977
40
0.2098495
50
359.9939246
51
1.5400229
0
ARC
8
bottom_labelLayer
10
7.5766733
20
3.5020266
40
0.180583
50
179.7055169
51
187.9165034
0
ARC
8
bottom_labelLayer
10
7.5104496
20
3.4925115
40
0.1136803
50
187.7635638
51
200.0977338
0
ARC
8
bottom_labelLayer
10
7.4739621
20
3.4791422
40
0.0748205
50
200.0844569
51
216.9130832
0
ARC
8
bottom_labelLayer
10
7.4606372
20
3.4696277
40
0.0584535
50
217.3009345
51
261.7097673
0
ARC
8
bottom_labelLayer
10
7.466822
20
3.4991404
40
0.0885691
50
260.5033535
51
270.2484122
0
ARC
8
bottom_labelLayer
10
7.4680045
20
3.4934011
40
0.082833
50
269.447609
51
284.7260372
0
ARC
8
bottom_labelLayer
10
7.4745622
20
3.4690849
40
0.0576488
50
284.5658866
51
322.6336771
0
ARC
8
bottom_labelLayer
10
7.4592284
20
3.4801629
40
0.0765607
50
323.0091564
51
342.6390997
0
ARC
8
bottom_labelLayer
10
7.4153883
20
3.4944927
40
0.1226809
50
342.3609848
51
353.7544625
0
ARC
8
bottom_labelLayer
10
7.3507062
20
3.5022927
40
0.187829
50
353.5357407
51
0.2019633
0
ARC
8
bottom_labelLayer
10
7.3605745
20
3.5038617
40
0.1779619
50
359.7080102
51
7.8970995
0
ARC
8
bottom_labelLayer
10
7.4257579
20
3.5132052
40
0.1121133
50
7.7442847
51
20.0693381
0
ARC
8
bottom_labelLayer
10
7.4620731
20
3.5265319
40
0.0734304
50
20.0258843
51
37.4352896
0
ARC
8
bottom_labelLayer
10
7.474122
20
3.5350817
40
0.0586684
50
37.9579572
51
80.4007991
0
ARC
8
bottom_labelLayer
10
7.4672737
20
3.5045217
40
0.0899579
50
79.3458081
51
90.3168378
0
ARC
8
bottom_labelLayer
10
7.4660076
20
3.5095962
40
0.0848855
50
89.4811722
51
103.8795246
0
ARC
8
bottom_labelLayer
10
7.4588743
20
3.5367642
40
0.0568009
50
103.4679923
51
142.3121952
0
ARC
8
bottom_labelLayer
10
7.4727393
20
3.5270127
40
0.0737386
50
142.9024596
51
162.3749846
0
ARC
8
bottom_labelLayer
10
7.5164305
20
3.5124527
40
0.1197891
50
162.0652659
51
173.1671805
0
ARC
8
bottom_labelLayer
10
7.5845445
20
3.5037666
40
0.1884534
50
173.0088864
51
180.2468285
0
LINE
8
bottom_labelLayer
10
7.9738075
20
3.3850056
11
7.9381435
21
3.3850056
0
LINE
8
bottom_labelLayer
10
7.9381435
20
3.3850056
11
7.9381435
21
3.5381892
0
LINE
8
bottom_labelLayer
10
7.8236317
20
3.5164899
11
7.8236317
21
3.3850056
0
LINE
8
bottom_labelLayer
10
7.8236317
20
3.3850056
11
7.7879677
21
3.3850056
0
LINE
8
bottom_labelLayer
10
7.7879677
20
3.3850056
11
7.7879677
21
3.5381892
0
LINE
8
bottom_labelLayer
10
7.6736708
20
3.5085407
11
7.6736708
21
3.3850056
0
LINE
8
bottom_labelLayer
10
7.6736708
20
3.3850056
11
7.6380067
21
3.3850056
0
LINE
8
bottom_labelLayer
10
7.6380067
20
3.3850056
11
7.6380067
21
3.6204743
0
LINE
8
bottom_labelLayer
10
7.6380067
20
3.6204743
11
7.6670106
21
3.6204743
0
LINE
8
bottom_labelLayer
10
7.6670106
20
3.6204743
11
7.6728114
21
3.5882477
0
LINE
8
bottom_labelLayer
10
7.6728114
20
3.5882477
11
7.6745302
21
3.5882477
0
LINE
8
bottom_labelLayer
10
7.8163271
20
3.5848102
11
7.8180458
21
3.5848102
0
LINE
8
bottom_labelLayer
10
7.9738075
20
3.5386188
11
7.9738075
21
3.3850056
0
ARC
8
bottom_labelLayer
10
7.8329353
20
3.5387508
40
0.1052097
50
359.6941136
51
8.1466096
0
ARC
8
bottom_labelLayer
10
7.8716778
20
3.5444824
40
0.066046
50
7.9872692
51
20.7941352
0
ARC
8
bottom_labelLayer
10
7.8931066
20
3.55269
40
0.0430993
50
20.7070769
51
40.0213374
0
ARC
8
bottom_labelLayer
10
7.8978066
20
3.5557644
40
0.0375288
50
41.0413364
51
73.1792706
0
ARC
8
bottom_labelLayer
10
7.8910064
20
3.5351995
40
0.0591845
50
72.6388036
51
86.2562806
0
ARC
8
bottom_labelLayer
10
7.8888284
20
3.5117144
40
0.082764
50
85.8132754
51
90.0685126
0
ARC
8
bottom_labelLayer
10
7.8880281
20
3.5027178
40
0.0917631
50
89.5620942
51
101.2969161
0
ARC
8
bottom_labelLayer
10
7.8811166
20
3.5358005
40
0.0579684
50
101.0034553
51
121.7841728
0
ARC
8
bottom_labelLayer
10
7.875859
20
3.5451844
40
0.0472248
50
122.3587481
51
140.2888458
0
ARC
8
bottom_labelLayer
10
7.8853143
20
3.5382512
40
0.0589325
50
140.9767674
51
161.1707104
0
ARC
8
bottom_labelLayer
10
7.9209332
20
3.5255757
40
0.0967377
50
160.8738804
51
172.5275199
0
ARC
8
bottom_labelLayer
10
7.9804146
20
3.5173583
40
0.1567833
50
172.3769513
51
180.183524
0
ARC
8
bottom_labelLayer
10
7.9911578
20
3.5165815
40
0.167526
50
179.9060913
51
180.0313279
0
ARC
8
bottom_labelLayer
10
7.6827595
20
3.5387508
40
0.1052097
50
359.6941136
51
8.1466096
0
ARC
8
bottom_labelLayer
10
7.721502
20
3.5444824
40
0.066046
50
7.9872692
51
20.7941352
0
ARC
8
bottom_labelLayer
10
7.7429308
20
3.55269
40
0.0430993
50
20.7070769
51
40.0213374
0
ARC
8
bottom_labelLayer
10
7.747728
20
3.5558315
40
0.0374115
50
41.0614418
51
72.8986587
0
ARC
8
bottom_labelLayer
10
7.7408001
20
3.5352031
40
0.0591677
50
72.3607036
51
85.9564014
0
ARC
8
bottom_labelLayer
10
7.7384568
20
3.5110077
40
0.0834706
50
85.5230904
51
90.0810242
0
ARC
8
bottom_labelLayer
10
7.7376545
20
3.5058982
40
0.0885826
50
89.5573999
51
101.482843
0
ARC
8
bottom_labelLayer
10
7.7308563
20
3.5377539
40
0.0560121
50
101.1550135
51
123.0653536
0
ARC
8
bottom_labelLayer
10
7.7262366
20
3.5458027
40
0.0467492
50
123.7024874
51
142.3011629
0
ARC
8
bottom_labelLayer
10
7.7370596
20
3.5384612
40
0.0598076
50
143.0766957
51
161.3910782
0
ARC
8
bottom_labelLayer
10
7.7806946
20
3.5230507
40
0.106081
50
161.023482
51
171.4471146
0
ARC
8
bottom_labelLayer
10
7.8529194
20
3.5117358
40
0.1791859
50
171.3039735
51
178.3505872
0
ARC
8
bottom_labelLayer
10
7.922039
20
3.5086505
40
0.2483681
50
178.0980957
51
180.0253177
0
ARC
8
bottom_labelLayer
10
7.7349504
20
3.5527173
40
0.0700929
50
117.1210466
51
149.5420851
0
ARC
8
bottom_labelLayer
10
7.7421029
20
3.5400058
40
0.0846693
50
93.8340974
51
117.5076352
0
ARC
8
bottom_labelLayer
10
7.7440793
20
3.522502
40
0.1022692
50
89.966219
51
94.2831161
0
ARC
8
bottom_labelLayer
10
7.7452638
20
3.508011
40
0.1167656
50
77.5577004
51
90.5516522
0
ARC
8
bottom_labelLayer
10
7.7560984
20
3.5546159
40
0.0689228
50
52.7019823
51
78.0056817
0
ARC
8
bottom_labelLayer
10
7.7599561
20
3.5617939
40
0.0608887
50
22.210273
51
51.4966277
0
ARC
8
bottom_labelLayer
10
7.8826522
20
3.5477849
40
0.0744638
50
119.4041307
51
150.1833186
0
ARC
8
bottom_labelLayer
10
7.8909624
20
3.5351355
40
0.0895695
50
118.2600112
51
120.0625523
0
ARC
8
bottom_labelLayer
10
7.8908878
20
3.5343072
40
0.0902649
50
95.863515
51
117.9693615
0
ARC
8
bottom_labelLayer
10
7.8939409
20
3.512252
40
0.1125193
50
89.9187576
51
96.2627603
0
ARC
8
bottom_labelLayer
10
7.8949235
20
3.5008071
40
0.1239669
50
79.9358196
51
90.3803731
0
ARC
8
bottom_labelLayer
10
7.9031853
20
3.545544
40
0.0784753
50
62.9721658
51
80.1671463
0
ARC
8
bottom_labelLayer
10
7.9118197
20
3.563258
40
0.0587732
50
44.2284537
51
62.622893
0
ARC
8
bottom_labelLayer
10
7.9092476
20
3.5621198
40
0.061418
50
19.5621311
51
43.3156433
0
ARC
8
bottom_labelLayer
10
7.8719464
20
3.5481117
40
0.1012589
50
7.5040954
51
19.9638849
0
ARC
8
bottom_labelLayer
10
7.810217
20
3.5394434
40
0.1635926
50
359.7112266
51
7.6905691
0
ENDSEC
0
EOF