<svg width="8.85in" height="8.525in" viewBox="0 0 8.85 8.525" xmlns="http://www.w3.org/2000/svg" version="1.1" preserveAspectRatio="xMidYMid meet"><g id="svgGroup" stroke-linecap="round" fill-rule="evenodd" font-size="9pt" stroke="#000" stroke-width="0.25mm" fill="none" style="stroke:#000;stroke-width:0.25mm;fill:none"><path d="M 0 4.325 L 0 5.908 L 0.115 5.908 L 0.115 6.943 L 0 6.943 L 0 7.978 L 0 8.525 L 1.083 8.525 L 1.083 8.41 L 2.117 8.41 L 2.117 8.525 L 3.2 8.525 L 3.2 6.943 L 3.085 6.943 L 3.085 5.908 L 3.2 5.908 L 3.2 4.873 L 3.2 4.325 L 2.118 4.325 L 2.118 4.44 L 1.083 4.44 L 1.083 4.325 L 0 4.325 Z" id="front_outsideCutPath" stroke="#FF0000" stroke-width="0.1" style="stroke:#FF0000;stroke-width:0.1" vector-effect="non-scaling-stroke"/><path d="M 2.066 6.667 L 2.015 6.667 L 2.015 6.445 A 0.147 0.147 0 0 0 2.013 6.422 Q 2.011 6.41 2.007 6.4 A 0.062 0.062 0 0 0 1.995 6.383 A 0.058 0.058 0 0 0 1.971 6.367 Q 1.956 6.362 1.936 6.362 A 0.157 0.157 0 0 0 1.906 6.365 Q 1.875 6.371 1.857 6.391 Q 1.832 6.42 1.832 6.487 L 1.832 6.667 L 1.78 6.667 L 1.78 6.324 L 1.822 6.324 L 1.831 6.371 L 1.833 6.371 A 0.105 0.105 0 0 1 1.874 6.334 A 0.126 0.126 0 0 1 1.878 6.332 A 0.14 0.14 0 0 1 1.928 6.319 A 0.17 0.17 0 0 1 1.942 6.318 A 0.205 0.205 0 0 1 1.977 6.321 Q 2.013 6.327 2.035 6.348 Q 2.059 6.371 2.065 6.414 A 0.226 0.226 0 0 1 2.066 6.443 L 2.066 6.667 Z M 1.07 6.324 L 1.07 6.365 L 0.983 6.365 L 0.983 6.667 L 0.931 6.667 L 0.931 6.365 L 0.87 6.365 L 0.87 6.341 L 0.931 6.322 L 0.931 6.303 A 0.21 0.21 0 0 1 0.936 6.256 Q 0.954 6.177 1.041 6.177 A 0.167 0.167 0 0 1 1.065 6.179 Q 1.076 6.18 1.089 6.184 A 0.336 0.336 0 0 1 1.105 6.188 L 1.091 6.23 Q 1.07 6.223 1.053 6.221 A 0.112 0.112 0 0 0 1.04 6.22 A 0.07 0.07 0 0 0 1.023 6.222 A 0.045 0.045 0 0 0 0.997 6.239 A 0.06 0.06 0 0 0 0.989 6.255 Q 0.984 6.271 0.983 6.294 A 0.245 0.245 0 0 0 0.983 6.302 L 0.983 6.324 L 1.07 6.324 Z M 2.33 6.624 L 2.33 6.664 A 0.051 0.051 0 0 1 2.324 6.666 Q 2.318 6.668 2.309 6.67 A 0.193 0.193 0 0 1 2.306 6.67 Q 2.29 6.673 2.278 6.673 A 0.134 0.134 0 0 1 2.276 6.673 A 0.135 0.135 0 0 1 2.236 6.668 Q 2.192 6.654 2.181 6.606 A 0.163 0.163 0 0 1 2.177 6.568 L 2.177 6.365 L 2.128 6.365 L 2.128 6.34 L 2.177 6.318 L 2.199 6.245 L 2.229 6.245 L 2.229 6.324 L 2.328 6.324 L 2.328 6.365 L 2.229 6.365 L 2.229 6.566 Q 2.229 6.588 2.236 6.602 A 0.05 0.05 0 0 0 2.243 6.614 Q 2.258 6.63 2.284 6.63 A 0.17 0.17 0 0 0 2.309 6.628 A 0.155 0.155 0 0 0 2.31 6.628 Q 2.322 6.626 2.33 6.624 Z M 1.33 6.322 L 1.322 6.37 A 0.229 0.229 0 0 0 1.306 6.367 Q 1.298 6.366 1.29 6.365 A 0.122 0.122 0 0 0 1.285 6.365 A 0.09 0.09 0 0 0 1.218 6.394 A 0.123 0.123 0 0 0 1.214 6.399 A 0.118 0.118 0 0 0 1.185 6.465 A 0.157 0.157 0 0 0 1.184 6.483 L 1.184 6.667 L 1.132 6.667 L 1.132 6.324 L 1.175 6.324 L 1.181 6.388 L 1.184 6.388 A 0.175 0.175 0 0 1 1.203 6.36 A 0.134 0.134 0 0 1 1.23 6.336 A 0.103 0.103 0 0 1 1.289 6.318 A 0.238 0.238 0 0 1 1.31 6.319 A 0.174 0.174 0 0 1 1.33 6.322 Z M 1.684 6.547 A 0.268 0.268 0 0 0 1.689 6.495 A 0.305 0.305 0 0 0 1.689 6.487 Q 1.687 6.411 1.647 6.366 A 0.136 0.136 0 0 0 1.584 6.325 A 0.174 0.174 0 0 0 1.533 6.318 A 0.201 0.201 0 0 0 1.496 6.321 A 0.137 0.137 0 0 0 1.416 6.365 A 0.143 0.143 0 0 0 1.399 6.389 Q 1.385 6.413 1.379 6.443 A 0.269 0.269 0 0 0 1.375 6.495 A 0.259 0.259 0 0 0 1.378 6.537 A 0.192 0.192 0 0 0 1.394 6.59 A 0.171 0.171 0 0 0 1.398 6.597 A 0.14 0.14 0 0 0 1.449 6.651 A 0.144 0.144 0 0 0 1.482 6.666 A 0.167 0.167 0 0 0 1.53 6.673 Q 1.605 6.673 1.647 6.626 A 0.145 0.145 0 0 0 1.664 6.602 Q 1.678 6.578 1.684 6.547 Z M 1.439 6.567 A 0.109 0.109 0 0 0 1.455 6.595 A 0.085 0.085 0 0 0 1.51 6.628 A 0.129 0.129 0 0 0 1.532 6.63 A 0.12 0.12 0 0 0 1.564 6.626 A 0.084 0.084 0 0 0 1.609 6.595 Q 1.635 6.561 1.635 6.495 Q 1.635 6.453 1.625 6.424 A 0.107 0.107 0 0 0 1.609 6.396 Q 1.583 6.362 1.531 6.362 A 0.123 0.123 0 0 0 1.5 6.366 A 0.083 0.083 0 0 0 1.454 6.395 Q 1.436 6.42 1.43 6.461 A 0.274 0.274 0 0 0 1.428 6.495 Q 1.428 6.538 1.439 6.567 Z" id="front_labelLayer" stroke="#777777" fill="#777777" style="stroke:#777777;fill:#777777" vector-effect="non-scaling-stroke"/><path d="M 3.44 4.325 L 3.44 5.908 L 3.325 5.908 L 3.325 6.943 L 3.44 6.943 L 3.44 7.978 L 3.44 8.525 L 3.908 8.525 L 3.908 8.41 L 4.943 8.41 L 4.943 8.525 L 5.41 8.525 L 5.41 6.943 L 5.525 6.943 L 5.525 5.908 L 5.41 5.908 L 5.41 4.873 L 5.41 4.325 L 4.943 4.325 L 4.943 4.44 L 3.908 4.44 L 3.908 4.325 L 3.44 4.325 Z" id="left_outsideCutPath" stroke="#FF0000" stroke-width="0.1" style="stroke:#FF0000;stroke-width:0.1" vector-effect="non-scaling-stroke"/><path d="M 4.582 6.356 L 4.582 6.383 L 4.522 6.383 L 4.522 6.591 L 4.486 6.591 L 4.486 6.383 L 4.444 6.383 L 4.444 6.367 L 4.486 6.354 L 4.486 6.341 A 0.145 0.145 0 0 1 4.489 6.309 Q 4.502 6.255 4.562 6.255 Q 4.576 6.255 4.595 6.259 A 0.231 0.231 0 0 1 4.606 6.262 L 4.596 6.291 A 0.173 0.173 0 0 0 4.583 6.287 Q 4.576 6.285 4.57 6.285 A 0.077 0.077 0 0 0 4.561 6.284 A 0.048 0.048 0 0 0 4.55 6.285 A 0.031 0.031 0 0 0 4.531 6.297 Q 4.522 6.31 4.522 6.335 A 0.169 0.169 0 0 0 4.522 6.34 L 4.522 6.356 L 4.582 6.356 Z M 4.415 6.457 L 4.415 6.48 L 4.252 6.48 Q 4.253 6.508 4.263 6.527 A 0.067 0.067 0 0 0 4.273 6.543 A 0.065 0.065 0 0 0 4.307 6.562 A 0.098 0.098 0 0 0 4.329 6.564 A 0.188 0.188 0 0 0 4.4 6.55 A 0.214 0.214 0 0 0 4.404 6.548 L 4.404 6.58 A 0.214 0.214 0 0 1 4.385 6.588 A 0.164 0.164 0 0 1 4.369 6.592 Q 4.352 6.595 4.328 6.595 A 0.139 0.139 0 0 1 4.293 6.591 A 0.098 0.098 0 0 1 4.246 6.564 A 0.105 0.105 0 0 1 4.22 6.518 Q 4.216 6.501 4.216 6.482 A 0.204 0.204 0 0 1 4.215 6.475 A 0.187 0.187 0 0 1 4.219 6.438 Q 4.223 6.416 4.234 6.398 A 0.106 0.106 0 0 1 4.243 6.385 Q 4.271 6.351 4.319 6.351 A 0.109 0.109 0 0 1 4.349 6.356 A 0.083 0.083 0 0 1 4.389 6.381 A 0.1 0.1 0 0 1 4.411 6.426 A 0.145 0.145 0 0 1 4.415 6.457 Z M 4.733 6.562 L 4.733 6.589 Q 4.728 6.592 4.718 6.593 A 0.132 0.132 0 0 1 4.716 6.594 Q 4.704 6.595 4.695 6.595 Q 4.627 6.595 4.627 6.524 L 4.627 6.383 L 4.593 6.383 L 4.593 6.366 L 4.627 6.351 L 4.642 6.301 L 4.663 6.301 L 4.663 6.356 L 4.731 6.356 L 4.731 6.383 L 4.663 6.383 L 4.663 6.522 Q 4.663 6.543 4.673 6.555 A 0.033 0.033 0 0 0 4.693 6.565 A 0.048 0.048 0 0 0 4.701 6.566 Q 4.71 6.566 4.719 6.565 A 0.193 0.193 0 0 0 4.724 6.564 A 0.074 0.074 0 0 0 4.732 6.562 Z M 4.153 6.257 L 4.153 6.591 L 4.117 6.591 L 4.117 6.257 L 4.153 6.257 Z M 4.253 6.451 L 4.376 6.451 Q 4.376 6.417 4.361 6.399 A 0.049 0.049 0 0 0 4.332 6.382 A 0.073 0.073 0 0 0 4.318 6.381 A 0.07 0.07 0 0 0 4.298 6.384 A 0.054 0.054 0 0 0 4.273 6.4 Q 4.256 6.418 4.253 6.451 Z M 4.724 6.564 Q 4.726 6.563 4.729 6.563" id="left_labelLayer" stroke="#777777" fill="#777777" style="stroke:#777777;fill:#777777" vector-effect="non-scaling-stroke"/><path d="M 5.765 6.44 L 5.765 6.908 L 5.65 6.908 L 5.65 7.943 L 5.765 7.943 L 5.765 8.41 L 6.733 8.41 L 6.733 8.525 L 7.768 8.525 L 7.768 8.41 L 8.735 8.41 L 8.735 7.943 L 8.85 7.943 L 8.85 6.908 L 8.735 6.908 L 8.735 6.44 L 7.768 6.44 L 7.768 6.325 L 6.733 6.325 L 6.733 6.44 L 5.765 6.44 Z" id="top_outsideCutPath" stroke="#FF0000" stroke-width="0.1" style="stroke:#FF0000;stroke-width:0.1" vector-effect="non-scaling-stroke"/><path d="M 7.408 7.487 L 7.406 7.487 Q 7.408 7.508 7.408 7.526 L 7.408 7.623 L 7.372 7.623 L 7.372 7.282 L 7.401 7.282 L 7.406 7.314 L 7.408 7.314 A 0.096 0.096 0 0 1 7.422 7.298 A 0.074 0.074 0 0 1 7.44 7.286 A 0.089 0.089 0 0 1 7.466 7.279 A 0.116 0.116 0 0 1 7.482 7.277 A 0.109 0.109 0 0 1 7.513 7.282 A 0.081 0.081 0 0 1 7.554 7.309 A 0.107 0.107 0 0 1 7.573 7.345 Q 7.58 7.369 7.58 7.399 A 0.209 0.209 0 0 1 7.577 7.434 Q 7.574 7.453 7.567 7.468 A 0.1 0.1 0 0 1 7.554 7.489 A 0.084 0.084 0 0 1 7.494 7.521 A 0.121 0.121 0 0 1 7.482 7.521 A 0.108 0.108 0 0 1 7.455 7.518 A 0.094 0.094 0 0 1 7.44 7.513 A 0.079 0.079 0 0 1 7.408 7.487 Z M 7.06 7.488 L 7.06 7.515 Q 7.054 7.518 7.045 7.519 A 0.132 0.132 0 0 1 7.043 7.52 Q 7.031 7.521 7.022 7.521 Q 6.954 7.521 6.954 7.449 L 6.954 7.309 L 6.92 7.309 L 6.92 7.292 L 6.954 7.277 L 6.969 7.227 L 6.99 7.227 L 6.99 7.282 L 7.058 7.282 L 7.058 7.309 L 6.99 7.309 L 6.99 7.448 Q 6.99 7.469 7 7.481 A 0.033 0.033 0 0 0 7.02 7.491 A 0.048 0.048 0 0 0 7.027 7.492 Q 7.037 7.492 7.046 7.491 A 0.193 0.193 0 0 0 7.051 7.49 A 0.074 0.074 0 0 0 7.059 7.488 Z M 7.307 7.435 A 0.184 0.184 0 0 0 7.31 7.399 Q 7.31 7.376 7.305 7.357 A 0.111 0.111 0 0 0 7.281 7.31 A 0.093 0.093 0 0 0 7.237 7.282 A 0.12 0.12 0 0 0 7.202 7.277 A 0.139 0.139 0 0 0 7.177 7.28 A 0.094 0.094 0 0 0 7.122 7.31 A 0.099 0.099 0 0 0 7.11 7.326 Q 7.101 7.343 7.097 7.363 A 0.185 0.185 0 0 0 7.094 7.399 A 0.178 0.178 0 0 0 7.096 7.428 A 0.132 0.132 0 0 0 7.107 7.464 A 0.117 0.117 0 0 0 7.11 7.469 A 0.097 0.097 0 0 0 7.145 7.507 A 0.099 0.099 0 0 0 7.168 7.517 A 0.115 0.115 0 0 0 7.201 7.521 A 0.138 0.138 0 0 0 7.225 7.519 A 0.095 0.095 0 0 0 7.281 7.489 Q 7.3 7.468 7.307 7.435 Z M 7.138 7.449 A 0.075 0.075 0 0 0 7.149 7.468 A 0.058 0.058 0 0 0 7.187 7.49 A 0.089 0.089 0 0 0 7.202 7.492 A 0.083 0.083 0 0 0 7.224 7.489 A 0.058 0.058 0 0 0 7.255 7.468 Q 7.273 7.445 7.273 7.399 A 0.178 0.178 0 0 0 7.271 7.374 Q 7.269 7.361 7.266 7.35 A 0.073 0.073 0 0 0 7.255 7.331 A 0.059 0.059 0 0 0 7.218 7.309 A 0.09 0.09 0 0 0 7.201 7.308 Q 7.166 7.308 7.148 7.331 Q 7.136 7.347 7.132 7.375 A 0.188 0.188 0 0 0 7.131 7.399 Q 7.131 7.428 7.138 7.449 Z M 7.408 7.391 L 7.408 7.399 Q 7.408 7.449 7.425 7.47 A 0.052 0.052 0 0 0 7.451 7.488 Q 7.463 7.492 7.478 7.492 A 0.06 0.06 0 0 0 7.501 7.487 Q 7.516 7.481 7.526 7.467 Q 7.539 7.447 7.542 7.416 A 0.19 0.19 0 0 0 7.543 7.399 A 0.18 0.18 0 0 0 7.541 7.373 Q 7.537 7.347 7.526 7.331 A 0.055 0.055 0 0 0 7.485 7.308 A 0.076 0.076 0 0 0 7.477 7.308 A 0.103 0.103 0 0 0 7.458 7.309 Q 7.436 7.313 7.425 7.328 Q 7.41 7.346 7.408 7.386 A 0.226 0.226 0 0 0 7.408 7.391 Z M 7.051 7.49 Q 7.053 7.489 7.055 7.489" id="top_labelLayer" stroke="#777777" fill="#777777" style="stroke:#777777;fill:#777777" vector-effect="non-scaling-stroke"/><path d="M 0 0 L 0 1.582 L 0.115 1.582 L 0.115 2.617 L 0 2.617 L 0 3.653 L 0 4.2 L 1.083 4.2 L 1.083 4.085 L 2.117 4.085 L 2.117 4.2 L 3.2 4.2 L 3.2 2.617 L 3.085 2.617 L 3.085 1.582 L 3.2 1.582 L 3.2 0.547 L 3.2 0 L 2.118 0 L 2.118 0.115 L 1.083 0.115 L 1.083 0 L 0 0 Z" id="back_outsideCutPath" stroke="#FF0000" stroke-width="0.1" style="stroke:#FF0000;stroke-width:0.1" vector-effect="non-scaling-stroke"/><path d="M 2.038 2.165 L 2.041 2.165 A 0.307 0.307 0 0 1 2.048 2.154 Q 2.057 2.143 2.069 2.129 A 1.114 1.114 0 0 1 2.082 2.115 L 2.192 1.997 L 2.254 1.997 L 2.115 2.143 L 2.263 2.34 L 2.201 2.34 L 2.08 2.178 L 2.041 2.212 L 2.041 2.34 L 1.989 2.34 L 1.989 1.854 L 2.041 1.854 L 2.041 2.112 A 0.345 0.345 0 0 1 2.04 2.121 Q 2.04 2.137 2.038 2.163 A 2.38 2.38 0 0 1 2.038 2.165 Z M 0.988 2.296 L 0.985 2.296 L 0.974 2.34 L 0.937 2.34 L 0.937 1.854 L 0.988 1.854 L 0.988 1.972 A 1.081 1.081 0 0 1 0.988 2.008 Q 0.987 2.026 0.986 2.041 A 0.61 0.61 0 0 1 0.986 2.043 L 0.988 2.043 A 0.118 0.118 0 0 1 1.075 1.993 A 0.177 0.177 0 0 1 1.096 1.992 A 0.159 0.159 0 0 1 1.141 1.998 A 0.119 0.119 0 0 1 1.201 2.038 A 0.153 0.153 0 0 1 1.228 2.09 Q 1.234 2.111 1.237 2.136 A 0.333 0.333 0 0 1 1.238 2.168 Q 1.238 2.253 1.2 2.3 A 0.123 0.123 0 0 1 1.113 2.345 A 0.176 0.176 0 0 1 1.096 2.346 Q 1.063 2.346 1.035 2.334 Q 1.007 2.322 0.988 2.296 Z M 1.578 2.34 L 1.539 2.34 L 1.529 2.291 L 1.527 2.291 A 0.215 0.215 0 0 1 1.509 2.311 Q 1.492 2.327 1.475 2.335 Q 1.454 2.344 1.425 2.346 A 0.233 0.233 0 0 1 1.412 2.346 Q 1.371 2.346 1.344 2.329 A 0.089 0.089 0 0 1 1.332 2.32 A 0.085 0.085 0 0 1 1.306 2.275 A 0.131 0.131 0 0 1 1.303 2.245 Q 1.303 2.142 1.469 2.137 L 1.527 2.135 L 1.527 2.113 A 0.149 0.149 0 0 0 1.526 2.092 Q 1.522 2.068 1.51 2.054 Q 1.493 2.035 1.454 2.035 A 0.169 0.169 0 0 0 1.416 2.04 Q 1.398 2.044 1.378 2.052 A 0.347 0.347 0 0 0 1.358 2.061 L 1.342 2.021 A 0.239 0.239 0 0 1 1.388 2.002 A 0.272 0.272 0 0 1 1.397 2 A 0.24 0.24 0 0 1 1.458 1.992 A 0.219 0.219 0 0 1 1.491 1.994 Q 1.508 1.997 1.522 2.003 A 0.088 0.088 0 0 1 1.548 2.019 A 0.082 0.082 0 0 1 1.569 2.052 Q 1.574 2.065 1.576 2.082 A 0.204 0.204 0 0 1 1.578 2.106 L 1.578 2.34 Z M 1.913 2.009 L 1.897 2.053 A 0.231 0.231 0 0 0 1.872 2.045 A 0.276 0.276 0 0 0 1.86 2.042 Q 1.842 2.038 1.828 2.037 A 0.115 0.115 0 0 0 1.824 2.037 A 0.115 0.115 0 0 0 1.777 2.046 Q 1.719 2.071 1.719 2.17 A 0.251 0.251 0 0 0 1.722 2.207 Q 1.725 2.225 1.73 2.241 A 0.108 0.108 0 0 0 1.745 2.267 A 0.082 0.082 0 0 0 1.798 2.299 A 0.125 0.125 0 0 0 1.82 2.301 A 0.217 0.217 0 0 0 1.88 2.292 A 0.268 0.268 0 0 0 1.908 2.282 L 1.908 2.328 A 0.148 0.148 0 0 1 1.872 2.341 Q 1.855 2.345 1.836 2.346 A 0.284 0.284 0 0 1 1.822 2.346 A 0.194 0.194 0 0 1 1.774 2.341 A 0.131 0.131 0 0 1 1.706 2.3 Q 1.666 2.255 1.666 2.171 A 0.286 0.286 0 0 1 1.67 2.119 Q 1.675 2.09 1.687 2.067 A 0.143 0.143 0 0 1 1.707 2.038 Q 1.748 1.991 1.825 1.991 A 0.234 0.234 0 0 1 1.874 1.997 Q 1.899 2.002 1.913 2.009 Z M 1.088 2.035 A 0.146 0.146 0 0 0 1.06 2.038 Q 1.044 2.041 1.032 2.048 A 0.069 0.069 0 0 0 1.012 2.066 Q 0.988 2.096 0.988 2.168 Q 0.988 2.23 1.006 2.261 A 0.078 0.078 0 0 0 1.012 2.272 A 0.075 0.075 0 0 0 1.051 2.297 Q 1.063 2.301 1.079 2.302 A 0.167 0.167 0 0 0 1.09 2.303 A 0.103 0.103 0 0 0 1.119 2.299 A 0.075 0.075 0 0 0 1.161 2.268 A 0.119 0.119 0 0 0 1.176 2.236 Q 1.18 2.221 1.182 2.203 A 0.297 0.297 0 0 0 1.184 2.168 A 0.306 0.306 0 0 0 1.183 2.133 Q 1.178 2.095 1.163 2.072 A 0.086 0.086 0 0 0 1.161 2.068 A 0.076 0.076 0 0 0 1.113 2.038 A 0.12 0.12 0 0 0 1.088 2.035 Z M 1.526 2.202 L 1.526 2.172 L 1.474 2.174 Q 1.422 2.176 1.395 2.188 A 0.08 0.08 0 0 0 1.385 2.193 A 0.055 0.055 0 0 0 1.358 2.233 A 0.082 0.082 0 0 0 1.357 2.246 A 0.074 0.074 0 0 0 1.359 2.263 Q 1.363 2.279 1.375 2.289 A 0.056 0.056 0 0 0 1.396 2.3 Q 1.404 2.302 1.414 2.303 A 0.117 0.117 0 0 0 1.422 2.303 A 0.143 0.143 0 0 0 1.453 2.3 Q 1.475 2.296 1.49 2.284 A 0.087 0.087 0 0 0 1.498 2.277 Q 1.526 2.25 1.526 2.203 Z" id="back_labelLayer" stroke="#777777" fill="#777777" style="stroke:#777777;fill:#777777" vector-effect="non-scaling-stroke"/><path d="M 3.44 0 L 3.44 1.582 L 3.325 1.582 L 3.325 2.617 L 3.44 2.617 L 3.44 3.653 L 3.44 4.2 L 3.908 4.2 L 3.908 4.085 L 4.943 4.085 L 4.943 4.2 L 5.41 4.2 L 5.41 2.617 L 5.525 2.617 L 5.525 1.582 L 5.41 1.582 L 5.41 0.547 L 5.41 0 L 4.943 0 L 4.943 0.115 L 3.908 0.115 L 3.908 0 L 3.44 0 Z" id="right_outsideCutPath" stroke="#FF0000" stroke-width="0.1" style="stroke:#FF0000;stroke-width:0.1" vector-effect="non-scaling-stroke"/><path d="M 4.699 2.214 L 4.663 2.214 L 4.663 2.062 A 0.101 0.101 0 0 0 4.662 2.046 Q 4.66 2.038 4.658 2.031 A 0.042 0.042 0 0 0 4.65 2.019 Q 4.637 2.005 4.609 2.005 A 0.108 0.108 0 0 0 4.589 2.007 Q 4.577 2.009 4.569 2.013 A 0.05 0.05 0 0 0 4.555 2.025 A 0.059 0.059 0 0 0 4.544 2.043 Q 4.538 2.059 4.538 2.083 A 0.23 0.23 0 0 0 4.537 2.091 L 4.537 2.214 L 4.502 2.214 L 4.502 1.88 L 4.537 1.88 L 4.537 1.981 A 0.321 0.321 0 0 1 4.537 1.994 Q 4.537 2.004 4.536 2.011 L 4.538 2.011 A 0.071 0.071 0 0 1 4.563 1.987 A 0.087 0.087 0 0 1 4.568 1.985 A 0.092 0.092 0 0 1 4.598 1.976 A 0.116 0.116 0 0 1 4.612 1.975 Q 4.655 1.975 4.677 1.995 A 0.062 0.062 0 0 1 4.692 2.02 Q 4.696 2.03 4.698 2.042 A 0.154 0.154 0 0 1 4.699 2.061 L 4.699 2.214 Z M 4.372 1.979 L 4.453 1.979 L 4.453 2.001 L 4.41 2.007 A 0.058 0.058 0 0 1 4.415 2.014 Q 4.417 2.018 4.419 2.022 A 0.11 0.11 0 0 1 4.421 2.026 A 0.069 0.069 0 0 1 4.425 2.043 A 0.088 0.088 0 0 1 4.425 2.054 A 0.082 0.082 0 0 1 4.422 2.079 A 0.066 0.066 0 0 1 4.402 2.109 A 0.079 0.079 0 0 1 4.371 2.125 Q 4.355 2.129 4.337 2.129 A 0.115 0.115 0 0 1 4.324 2.129 A 0.097 0.097 0 0 1 4.317 2.128 A 0.063 0.063 0 0 0 4.307 2.134 Q 4.294 2.144 4.294 2.158 A 0.018 0.018 0 0 0 4.295 2.164 A 0.015 0.015 0 0 0 4.302 2.172 A 0.025 0.025 0 0 0 4.308 2.175 Q 4.314 2.176 4.322 2.177 A 0.135 0.135 0 0 0 4.33 2.177 L 4.371 2.177 A 0.146 0.146 0 0 1 4.393 2.178 Q 4.405 2.18 4.414 2.184 A 0.064 0.064 0 0 1 4.43 2.193 A 0.052 0.052 0 0 1 4.449 2.226 A 0.078 0.078 0 0 1 4.45 2.24 Q 4.45 2.278 4.42 2.299 A 0.086 0.086 0 0 1 4.419 2.299 A 0.107 0.107 0 0 1 4.392 2.312 Q 4.378 2.316 4.361 2.318 A 0.283 0.283 0 0 1 4.328 2.32 Q 4.281 2.32 4.256 2.303 Q 4.231 2.286 4.231 2.254 A 0.055 0.055 0 0 1 4.245 2.217 A 0.062 0.062 0 0 1 4.266 2.202 A 0.088 0.088 0 0 1 4.284 2.196 A 0.037 0.037 0 0 1 4.269 2.184 A 0.044 0.044 0 0 1 4.269 2.183 Q 4.262 2.175 4.262 2.163 A 0.041 0.041 0 0 1 4.265 2.15 A 0.036 0.036 0 0 1 4.269 2.141 Q 4.275 2.133 4.284 2.126 A 0.112 0.112 0 0 1 4.291 2.122 A 0.063 0.063 0 0 1 4.264 2.1 A 0.078 0.078 0 0 1 4.261 2.096 A 0.074 0.074 0 0 1 4.25 2.061 A 0.09 0.09 0 0 1 4.25 2.055 A 0.103 0.103 0 0 1 4.253 2.031 A 0.068 0.068 0 0 1 4.273 1.995 A 0.076 0.076 0 0 1 4.302 1.979 Q 4.318 1.975 4.339 1.975 A 0.137 0.137 0 0 1 4.357 1.976 A 0.104 0.104 0 0 1 4.372 1.979 Z M 4.88 2.185 L 4.88 2.212 Q 4.875 2.215 4.865 2.216 A 0.132 0.132 0 0 1 4.863 2.217 Q 4.852 2.219 4.843 2.219 Q 4.774 2.219 4.774 2.147 L 4.774 2.007 L 4.741 2.007 L 4.741 1.989 L 4.774 1.975 L 4.789 1.924 L 4.81 1.924 L 4.81 1.979 L 4.878 1.979 L 4.878 2.007 L 4.81 2.007 L 4.81 2.145 Q 4.81 2.166 4.82 2.178 A 0.033 0.033 0 0 0 4.841 2.189 A 0.048 0.048 0 0 0 4.848 2.189 Q 4.857 2.189 4.866 2.188 A 0.193 0.193 0 0 0 4.871 2.187 A 0.074 0.074 0 0 0 4.88 2.185 Z M 4.105 1.977 L 4.1 2.01 A 0.157 0.157 0 0 0 4.089 2.008 Q 4.084 2.007 4.079 2.007 A 0.084 0.084 0 0 0 4.075 2.007 A 0.062 0.062 0 0 0 4.029 2.027 A 0.085 0.085 0 0 0 4.026 2.03 A 0.081 0.081 0 0 0 4.006 2.076 A 0.108 0.108 0 0 0 4.006 2.088 L 4.006 2.214 L 3.97 2.214 L 3.97 1.979 L 3.999 1.979 L 4.003 2.022 L 4.005 2.022 A 0.12 0.12 0 0 1 4.019 2.003 A 0.092 0.092 0 0 1 4.037 1.987 A 0.071 0.071 0 0 1 4.077 1.975 A 0.164 0.164 0 0 1 4.092 1.975 A 0.12 0.12 0 0 1 4.105 1.977 Z M 4.185 1.979 L 4.185 2.214 L 4.149 2.214 L 4.149 1.979 L 4.185 1.979 Z M 4.36 2.209 L 4.317 2.209 A 0.082 0.082 0 0 0 4.302 2.21 Q 4.294 2.212 4.287 2.215 A 0.042 0.042 0 0 0 4.279 2.221 A 0.038 0.038 0 0 0 4.267 2.242 A 0.057 0.057 0 0 0 4.266 2.254 A 0.036 0.036 0 0 0 4.268 2.267 Q 4.272 2.277 4.282 2.283 A 0.057 0.057 0 0 0 4.296 2.289 Q 4.303 2.291 4.311 2.292 A 0.146 0.146 0 0 0 4.328 2.293 A 0.24 0.24 0 0 0 4.351 2.292 Q 4.379 2.289 4.394 2.279 A 0.052 0.052 0 0 0 4.407 2.269 A 0.039 0.039 0 0 0 4.416 2.243 A 0.048 0.048 0 0 0 4.415 2.233 Q 4.413 2.222 4.404 2.216 A 0.034 0.034 0 0 0 4.396 2.213 Q 4.388 2.21 4.374 2.209 A 0.227 0.227 0 0 0 4.36 2.209 Z M 4.293 2.085 A 0.038 0.038 0 0 0 4.299 2.092 Q 4.313 2.104 4.338 2.104 Q 4.379 2.104 4.388 2.073 A 0.072 0.072 0 0 0 4.39 2.054 A 0.077 0.077 0 0 0 4.387 2.033 Q 4.381 2.009 4.357 2.003 A 0.078 0.078 0 0 0 4.337 2.001 A 0.075 0.075 0 0 0 4.322 2.002 Q 4.313 2.004 4.306 2.008 A 0.041 0.041 0 0 0 4.299 2.014 A 0.043 0.043 0 0 0 4.288 2.032 Q 4.286 2.038 4.285 2.046 A 0.094 0.094 0 0 0 4.285 2.054 Q 4.285 2.073 4.293 2.085 Z M 4.147 1.908 A 0.04 0.04 0 0 0 4.146 1.915 Q 4.146 1.921 4.148 1.926 A 0.018 0.018 0 0 0 4.152 1.933 A 0.02 0.02 0 0 0 4.16 1.938 A 0.023 0.023 0 0 0 4.168 1.939 Q 4.176 1.939 4.182 1.933 Q 4.189 1.927 4.189 1.915 A 0.041 0.041 0 0 0 4.188 1.911 Q 4.188 1.902 4.182 1.897 A 0.021 0.021 0 0 0 4.168 1.891 A 0.027 0.027 0 0 0 4.166 1.891 A 0.021 0.021 0 0 0 4.152 1.897 A 0.017 0.017 0 0 0 4.149 1.902 Q 4.148 1.905 4.147 1.908 Z M 4.871 2.187 Q 4.874 2.186 4.876 2.186" id="right_labelLayer" stroke="#777777" fill="#777777" style="stroke:#777777;fill:#777777" vector-effect="non-scaling-stroke"/><path d="M 5.765 4.115 L 5.765 4.583 L 5.65 4.583 L 5.65 5.618 L 5.765 5.618 L 5.765 6.085 L 6.733 6.085 L 6.733 6.2 L 7.768 6.2 L 7.768 6.085 L 8.735 6.085 L 8.735 5.618 L 8.85 5.618 L 8.85 4.583 L 8.735 4.583 L 8.735 4.115 L 7.768 4.115 L 7.768 4 L 6.733 4 L 6.733 4.115 L 5.765 4.115 Z" id="bottom_outsideCutPath" stroke="#FF0000" stroke-width="0.1" style="stroke:#FF0000;stroke-width:0.1" vector-effect="non-scaling-stroke"/><path d="M 7.974 5.265 L 7.938 5.265 L 7.938 5.112 A 0.105 0.105 0 0 0 7.937 5.096 Q 7.936 5.088 7.933 5.082 A 0.043 0.043 0 0 0 7.926 5.07 A 0.038 0.038 0 0 0 7.909 5.058 Q 7.902 5.056 7.895 5.056 A 0.083 0.083 0 0 0 7.889 5.056 A 0.092 0.092 0 0 0 7.87 5.057 Q 7.859 5.06 7.851 5.065 A 0.047 0.047 0 0 0 7.84 5.075 A 0.059 0.059 0 0 0 7.83 5.093 Q 7.824 5.109 7.824 5.133 L 7.824 5.265 L 7.788 5.265 L 7.788 5.112 A 0.105 0.105 0 0 0 7.787 5.096 Q 7.786 5.088 7.783 5.082 A 0.043 0.043 0 0 0 7.776 5.07 A 0.037 0.037 0 0 0 7.759 5.058 Q 7.75 5.056 7.738 5.056 Q 7.715 5.056 7.7 5.065 A 0.047 0.047 0 0 0 7.689 5.076 A 0.06 0.06 0 0 0 7.68 5.092 Q 7.675 5.109 7.674 5.133 A 0.248 0.248 0 0 0 7.674 5.141 L 7.674 5.265 L 7.638 5.265 L 7.638 5.03 L 7.667 5.03 L 7.673 5.062 L 7.675 5.062 Q 7.685 5.045 7.703 5.035 Q 7.721 5.025 7.744 5.025 A 0.117 0.117 0 0 1 7.77 5.028 Q 7.804 5.036 7.816 5.065 L 7.818 5.065 A 0.074 0.074 0 0 1 7.846 5.037 A 0.09 0.09 0 0 1 7.849 5.036 Q 7.869 5.025 7.894 5.025 A 0.124 0.124 0 0 1 7.917 5.027 Q 7.929 5.029 7.939 5.035 A 0.059 0.059 0 0 1 7.954 5.046 A 0.061 0.061 0 0 1 7.967 5.067 Q 7.971 5.077 7.972 5.089 A 0.164 0.164 0 0 1 7.974 5.111 L 7.974 5.265 Z M 6.562 5.235 L 6.559 5.235 L 6.552 5.265 L 6.526 5.265 L 6.526 4.931 L 6.562 4.931 L 6.562 5.012 A 0.744 0.744 0 0 1 6.561 5.037 Q 6.561 5.05 6.56 5.061 L 6.562 5.061 A 0.081 0.081 0 0 1 6.621 5.027 A 0.122 0.122 0 0 1 6.636 5.026 A 0.109 0.109 0 0 1 6.666 5.03 A 0.082 0.082 0 0 1 6.708 5.057 Q 6.728 5.083 6.732 5.125 A 0.229 0.229 0 0 1 6.734 5.147 A 0.209 0.209 0 0 1 6.731 5.182 Q 6.728 5.201 6.721 5.216 A 0.1 0.1 0 0 1 6.708 5.237 A 0.084 0.084 0 0 1 6.648 5.269 A 0.121 0.121 0 0 1 6.636 5.269 A 0.108 0.108 0 0 1 6.609 5.266 A 0.094 0.094 0 0 1 6.594 5.261 A 0.079 0.079 0 0 1 6.562 5.235 Z M 7.17 5.236 L 7.17 5.263 Q 7.165 5.265 7.155 5.267 A 0.132 0.132 0 0 1 7.153 5.267 Q 7.142 5.269 7.132 5.269 Q 7.064 5.269 7.064 5.197 L 7.064 5.057 L 7.03 5.057 L 7.03 5.04 L 7.064 5.025 L 7.079 4.975 L 7.1 4.975 L 7.1 5.03 L 7.168 5.03 L 7.168 5.057 L 7.1 5.057 L 7.1 5.196 Q 7.1 5.217 7.11 5.228 A 0.033 0.033 0 0 0 7.13 5.239 A 0.048 0.048 0 0 0 7.138 5.24 Q 7.147 5.24 7.156 5.238 A 0.193 0.193 0 0 0 7.161 5.238 A 0.074 0.074 0 0 0 7.169 5.236 Z M 7.325 5.236 L 7.325 5.263 Q 7.32 5.265 7.31 5.267 A 0.132 0.132 0 0 1 7.308 5.267 Q 7.297 5.269 7.288 5.269 Q 7.219 5.269 7.219 5.197 L 7.219 5.057 L 7.186 5.057 L 7.186 5.04 L 7.219 5.025 L 7.235 4.975 L 7.255 4.975 L 7.255 5.03 L 7.323 5.03 L 7.323 5.057 L 7.255 5.057 L 7.255 5.196 Q 7.255 5.217 7.265 5.228 A 0.033 0.033 0 0 0 7.286 5.239 A 0.048 0.048 0 0 0 7.293 5.24 Q 7.302 5.24 7.311 5.238 A 0.193 0.193 0 0 0 7.316 5.238 A 0.074 0.074 0 0 0 7.325 5.236 Z M 6.996 5.183 A 0.184 0.184 0 0 0 6.999 5.147 Q 6.999 5.124 6.994 5.105 A 0.111 0.111 0 0 0 6.97 5.058 A 0.093 0.093 0 0 0 6.927 5.03 A 0.12 0.12 0 0 0 6.891 5.025 A 0.139 0.139 0 0 0 6.867 5.027 A 0.094 0.094 0 0 0 6.812 5.057 A 0.099 0.099 0 0 0 6.799 5.074 Q 6.79 5.09 6.786 5.111 A 0.185 0.185 0 0 0 6.783 5.147 A 0.178 0.178 0 0 0 6.785 5.176 A 0.132 0.132 0 0 0 6.796 5.212 A 0.117 0.117 0 0 0 6.799 5.217 A 0.097 0.097 0 0 0 6.834 5.254 A 0.099 0.099 0 0 0 6.857 5.265 A 0.115 0.115 0 0 0 6.89 5.269 A 0.138 0.138 0 0 0 6.914 5.267 A 0.095 0.095 0 0 0 6.97 5.237 Q 6.989 5.215 6.996 5.183 Z M 7.572 5.183 A 0.184 0.184 0 0 0 7.575 5.147 Q 7.575 5.124 7.571 5.105 A 0.111 0.111 0 0 0 7.546 5.058 A 0.093 0.093 0 0 0 7.503 5.03 A 0.12 0.12 0 0 0 7.468 5.025 A 0.139 0.139 0 0 0 7.443 5.027 A 0.094 0.094 0 0 0 7.388 5.057 A 0.099 0.099 0 0 0 7.376 5.074 Q 7.367 5.09 7.362 5.111 A 0.185 0.185 0 0 0 7.359 5.147 A 0.178 0.178 0 0 0 7.361 5.176 A 0.132 0.132 0 0 0 7.372 5.212 A 0.117 0.117 0 0 0 7.375 5.217 A 0.097 0.097 0 0 0 7.41 5.254 A 0.099 0.099 0 0 0 7.433 5.265 A 0.115 0.115 0 0 0 7.466 5.269 A 0.138 0.138 0 0 0 7.491 5.267 A 0.095 0.095 0 0 0 7.546 5.237 Q 7.566 5.215 7.572 5.183 Z M 6.827 5.197 A 0.075 0.075 0 0 0 6.838 5.216 A 0.058 0.058 0 0 0 6.876 5.238 A 0.089 0.089 0 0 0 6.891 5.239 A 0.083 0.083 0 0 0 6.913 5.237 A 0.058 0.058 0 0 0 6.944 5.216 Q 6.962 5.192 6.962 5.147 A 0.178 0.178 0 0 0 6.96 5.122 Q 6.959 5.109 6.955 5.098 A 0.073 0.073 0 0 0 6.944 5.079 A 0.059 0.059 0 0 0 6.907 5.057 A 0.09 0.09 0 0 0 6.89 5.056 Q 6.855 5.056 6.837 5.079 Q 6.825 5.095 6.821 5.123 A 0.188 0.188 0 0 0 6.82 5.147 Q 6.82 5.176 6.827 5.197 Z M 7.404 5.197 A 0.075 0.075 0 0 0 7.414 5.216 A 0.058 0.058 0 0 0 7.452 5.238 A 0.089 0.089 0 0 0 7.467 5.239 A 0.083 0.083 0 0 0 7.489 5.237 A 0.058 0.058 0 0 0 7.52 5.216 Q 7.539 5.192 7.539 5.147 A 0.178 0.178 0 0 0 7.537 5.122 Q 7.535 5.109 7.531 5.098 A 0.073 0.073 0 0 0 7.52 5.079 A 0.059 0.059 0 0 0 7.484 5.057 A 0.09 0.09 0 0 0 7.467 5.056 Q 7.432 5.056 7.414 5.079 Q 7.401 5.095 7.397 5.123 A 0.188 0.188 0 0 0 7.396 5.147 Q 7.396 5.176 7.404 5.197 Z M 6.631 5.056 A 0.1 0.1 0 0 0 6.611 5.057 Q 6.589 5.062 6.578 5.076 A 0.061 0.061 0 0 0 6.569 5.093 Q 6.562 5.114 6.562 5.147 Q 6.562 5.197 6.578 5.218 A 0.052 0.052 0 0 0 6.605 5.236 Q 6.616 5.239 6.631 5.239 A 0.071 0.071 0 0 0 6.652 5.237 A 0.051 0.051 0 0 0 6.68 5.215 Q 6.692 5.198 6.695 5.171 A 0.204 0.204 0 0 0 6.697 5.147 Q 6.697 5.103 6.682 5.08 A 0.059 0.059 0 0 0 6.68 5.078 A 0.052 0.052 0 0 0 6.647 5.057 A 0.082 0.082 0 0 0 6.631 5.056 Z M 7.161 5.238 Q 7.164 5.237 7.166 5.237 M 7.316 5.238 Q 7.319 5.237 7.321 5.237" id="bottom_labelLayer" stroke="#777777" fill="#777777" style="stroke:#777777;fill:#777777" vector-effect="non-scaling-stroke"/></g></svg>